<svg width="44" height="44" viewBox="0 0 44 44" fill="none" xmlns="http://www.w3.org/2000/svg">
<rect width="44" height="44" rx="22" fill="#EAF3EC"/>
<path fill-rule="evenodd" clip-rule="evenodd" d="M25.7513 21.541C22.8771 21.541 20.543 23.8752 20.543 26.7493C20.543 29.6235 22.8771 31.9577 25.7513 31.9577C28.6255 31.9577 30.9596 29.6235 30.9596 26.7493C30.9596 23.8752 28.6255 21.541 25.7513 21.541ZM23.2721 26.9369L24.8005 28.4644C25.0438 28.7085 25.4396 28.7085 25.6838 28.4644L28.2305 25.9185C28.4738 25.6743 28.4738 25.2785 28.2305 25.0343C27.9863 24.7902 27.5905 24.7902 27.3463 25.0343L25.2421 27.1385L24.1563 26.0527C23.9121 25.8085 23.5163 25.8085 23.2721 26.0527C23.0288 26.2968 23.0288 26.6927 23.2721 26.9369Z" fill="#308B43"/>
<path fill-rule="evenodd" clip-rule="evenodd" d="M13.043 19.4577V27.9993C13.043 28.6068 13.2846 29.1902 13.7138 29.6202C14.1438 30.0493 14.7271 30.291 15.3346 30.291H20.8571C20.1355 29.2952 19.7096 28.0718 19.7096 26.7493C19.7096 23.4152 22.4171 20.7077 25.7513 20.7077C27.9688 20.7077 29.9088 21.9052 30.9596 23.6877V19.4577H13.043ZM13.043 18.2077H30.9596V16.3327C30.9596 15.7252 30.718 15.1418 30.2888 14.7118C29.8588 14.2827 29.2755 14.041 28.668 14.041C25.4746 14.041 18.528 14.041 15.3346 14.041C14.7271 14.041 14.1438 14.2827 13.7138 14.7118C13.2846 15.1418 13.043 15.7252 13.043 16.3327V18.2077ZM16.168 17.3743H17.0013C17.3463 17.3743 17.6263 17.0943 17.6263 16.7493C17.6263 16.4043 17.3463 16.1243 17.0013 16.1243H16.168C15.823 16.1243 15.543 16.4043 15.543 16.7493C15.543 17.0943 15.823 17.3743 16.168 17.3743ZM19.0846 17.3743H19.918C20.263 17.3743 20.543 17.0943 20.543 16.7493C20.543 16.4043 20.263 16.1243 19.918 16.1243H19.0846C18.7396 16.1243 18.4596 16.4043 18.4596 16.7493C18.4596 17.0943 18.7396 17.3743 19.0846 17.3743Z" fill="#308B43"/>
</svg>
