<svg width="24" height="24" viewBox="0 0 24 24" fill="none" xmlns="http://www.w3.org/2000/svg">
<path d="M15.446 19.5692L12.3968 20.8865C12.1437 20.9958 11.8567 20.9958 11.6036 20.8865L8.55435 19.5692C6.03301 18.4799 4.40039 15.9962 4.40039 13.2496V3.88086C4.40039 3.32858 4.84811 2.88086 5.40039 2.88086H18.6C19.1523 2.88086 19.6 3.32857 19.6 3.88086V13.2496C19.6 15.9962 17.9674 18.4799 15.446 19.5692Z" stroke="#2A2D32" stroke-width="0.911845" stroke-miterlimit="10"/>
<path d="M16.0941 9.72235L15.2792 7.48117C15.1131 7.0246 14.6793 6.7207 14.1935 6.7207H9.8086C9.3228 6.7207 8.88889 7.0246 8.7229 7.48117L7.90792 9.72235C7.90792 9.72235 6.81641 10.2005 6.81641 11.4789V12.5629H17.1857V11.4789C17.1857 10.2005 16.0941 9.72235 16.0941 9.72235Z" stroke="#2A2D32" stroke-width="0.911845" stroke-miterlimit="10"/>
<path d="M7.90625 9.7207H16.0925" stroke="#2A2D32" stroke-width="0.911845" stroke-miterlimit="10"/>
<path d="M15.8672 8.92188H17.6355" stroke="#2A2D32" stroke-width="0.911845" stroke-miterlimit="10"/>
<path d="M8.13355 8.92188H6.36523" stroke="#2A2D32" stroke-width="0.911845" stroke-miterlimit="10"/>
<path d="M7.90625 14.7828V12.5625" stroke="#2A2D32" stroke-width="0.911845" stroke-miterlimit="10"/>
<path d="M16.0938 14.7828V12.5625" stroke="#2A2D32" stroke-width="0.911845" stroke-miterlimit="10"/>
<path d="M8.48242 16.5H15.5188" stroke="#2A2D32" stroke-width="0.911845" stroke-miterlimit="10"/>
<path d="M6.11523 5.16211H7.254" stroke="#2A2D32" stroke-width="0.911845" stroke-miterlimit="10"/>
<path d="M17.8849 5.16211H16.7461" stroke="#2A2D32" stroke-width="0.911845" stroke-miterlimit="10"/>
</svg>
