<svg width="24" height="24" viewBox="0 0 24 24" fill="none" xmlns="http://www.w3.org/2000/svg">
<path d="M4.3516 16.627H7.411V18.1567C7.411 18.5791 7.06857 18.9215 6.64615 18.9215H5.11641C4.694 18.9215 4.35156 18.5791 4.35156 18.1567L4.3516 16.627Z" stroke="#707276" stroke-width="1.13" stroke-miterlimit="10" stroke-linecap="round" stroke-linejoin="round"/>
<path d="M19.6473 16.627H16.5879V18.1567C16.5879 18.5791 16.9303 18.9215 17.3527 18.9215H18.8824C19.3049 18.9215 19.6473 18.5791 19.6473 18.1567V16.627Z" stroke="#707276" stroke-width="1.13" stroke-miterlimit="10" stroke-linecap="round" stroke-linejoin="round"/>
<path d="M19.3039 10.4317C20.36 10.4317 21.2161 11.2878 21.2161 12.3438V16.627H2.7832V12.3438C2.7832 11.2877 3.63928 10.4316 4.69533 10.4316" stroke="#707276" stroke-width="1.13" stroke-miterlimit="10" stroke-linecap="round" stroke-linejoin="round"/>
<path d="M9.70582 16.627H14.2949V13.8735H9.70582V16.627Z" stroke="#707276" stroke-width="1.13" stroke-miterlimit="10" stroke-linecap="round" stroke-linejoin="round"/>
<path d="M16.9719 10.4313C16.9719 9.16403 15.9446 8.13672 14.6774 8.13672C13.4101 8.13672 12.3828 9.16403 12.3828 10.4313" stroke="#707276" stroke-width="1.13" stroke-miterlimit="10" stroke-linejoin="round"/>
<path d="M2.7832 8.51953H3.58631L4.73359 10.4317" stroke="#707276" stroke-width="1.13" stroke-miterlimit="10" stroke-linecap="round" stroke-linejoin="round"/>
<path d="M21.216 8.51953H20.4129L19.2656 10.4317" stroke="#707276" stroke-width="1.13" stroke-miterlimit="10" stroke-linecap="round" stroke-linejoin="round"/>
<path d="M18.8352 13.8618C19.0189 13.2554 18.6761 12.6149 18.0697 12.4313C17.4632 12.2477 16.8227 12.5904 16.6391 13.1969C16.4555 13.8033 16.7983 14.4438 17.4047 14.6274C18.0111 14.811 18.6516 14.4683 18.8352 13.8618Z" stroke="#707276" stroke-width="1.13" stroke-miterlimit="10" stroke-linecap="round" stroke-linejoin="round"/>
<path d="M7.32267 13.9685C7.56516 13.3831 7.28717 12.712 6.70177 12.4695C6.11636 12.227 5.44522 12.505 5.20273 13.0904C4.96025 13.6758 5.23824 14.347 5.82364 14.5895C6.40905 14.8319 7.08018 14.554 7.32267 13.9685Z" stroke="#707276" stroke-width="1.13" stroke-miterlimit="10" stroke-linecap="round" stroke-linejoin="round"/>
<path d="M7.70635 5.07812H16.2945C17.1482 5.07812 17.8984 5.64409 18.133 6.46495L19.2665 10.4321H4.73438L5.86785 6.46495C6.10236 5.64405 6.85265 5.07812 7.70635 5.07812Z" stroke="#707276" stroke-width="1.13" stroke-miterlimit="10" stroke-linecap="round" stroke-linejoin="round"/>
</svg>
