<svg width="24" height="24" viewBox="0 0 24 24" fill="none" xmlns="http://www.w3.org/2000/svg">
<path d="M4.5 6.16667C4.5 5.24619 5.24619 4.5 6.16667 4.5H8.89937C9.25806 4.5 9.57651 4.72953 9.68994 5.06981L10.9381 8.81434C11.0693 9.20777 10.8911 9.63776 10.5202 9.82322L8.63917 10.7637C9.55771 12.801 11.199 14.4423 13.2363 15.3608L14.1768 13.4798C14.3622 13.1088 14.7922 12.9307 15.1857 13.0619L18.9302 14.3101C19.2705 14.4235 19.5 14.7419 19.5 15.1006V17.8333C19.5 18.7538 18.7538 19.5 17.8333 19.5H17C10.0964 19.5 4.5 13.9036 4.5 7V6.16667Z" stroke="#2A2D32" stroke-width="1.13" stroke-linecap="round" stroke-linejoin="round"/>
</svg>
