<svg width="274" height="235" viewBox="0 0 274 235" fill="none" xmlns="http://www.w3.org/2000/svg">
<path opacity="0.1" d="M7.79054 191.935C5.37549 174.841 10.0581 156.285 23.5941 141.007C60.6355 99.1988 59.0581 107.594 65.5688 57.2765C72.0794 6.95939 126.876 -12.6683 167.462 8.30509C216.599 33.6947 191.102 43.2376 249.692 85.6313C300.338 122.278 253.402 191.371 169.825 220.349C102.277 243.77 14.7854 241.446 7.79054 191.935Z" fill="#A0CAA9"/>
<path d="M7.18386 106.709C7.09161 106.709 7.00027 106.691 6.91505 106.656C6.82983 106.621 6.7524 106.569 6.68718 106.504C6.62195 106.438 6.57021 106.361 6.53491 106.276C6.49961 106.191 6.48145 106.099 6.48145 106.007V86.1887C6.48145 86.0024 6.55545 85.8238 6.68718 85.6921C6.8189 85.5603 6.99756 85.4863 7.18386 85.4863C7.37015 85.4863 7.54881 85.5603 7.68053 85.6921C7.81226 85.8238 7.88627 86.0024 7.88627 86.1887V106.007C7.88627 106.193 7.81226 106.372 7.68053 106.504C7.54881 106.635 7.37015 106.709 7.18386 106.709Z" fill="#262626"/>
<path d="M13.65 96.7992H0.717433C0.623948 96.8012 0.531005 96.7845 0.444054 96.7501C0.357102 96.7157 0.277893 96.6643 0.211071 96.5989C0.144249 96.5335 0.091159 96.4554 0.0549144 96.3692C0.0186697 96.283 0 96.1905 0 96.0969C0 96.0034 0.0186697 95.9109 0.0549144 95.8247C0.091159 95.7385 0.144249 95.6604 0.211071 95.595C0.277893 95.5296 0.357102 95.4782 0.444054 95.4438C0.531005 95.4094 0.623948 95.3927 0.717433 95.3947H13.65C13.8337 95.3986 14.0085 95.4743 14.1369 95.6056C14.2654 95.7369 14.3374 95.9133 14.3374 96.0969C14.3374 96.2806 14.2654 96.457 14.1369 96.5883C14.0085 96.7196 13.8337 96.7953 13.65 96.7992Z" fill="#262626"/>
<path d="M255.936 134.926C255.804 134.926 255.678 134.874 255.586 134.781C255.493 134.688 255.441 134.562 255.441 134.431V123.801C255.439 123.735 255.45 123.669 255.475 123.608C255.499 123.546 255.535 123.49 255.581 123.443C255.627 123.395 255.682 123.358 255.743 123.332C255.804 123.306 255.87 123.293 255.936 123.293C256.002 123.293 256.068 123.306 256.128 123.332C256.189 123.358 256.245 123.395 256.291 123.443C256.337 123.49 256.373 123.546 256.397 123.608C256.421 123.669 256.433 123.735 256.431 123.801V134.431C256.431 134.496 256.418 134.56 256.394 134.62C256.369 134.68 256.332 134.735 256.286 134.781C256.24 134.827 256.185 134.863 256.125 134.888C256.065 134.913 256.001 134.926 255.936 134.926Z" fill="#262626"/>
<path d="M259.405 129.612H252.468C252.402 129.614 252.336 129.602 252.275 129.578C252.213 129.554 252.157 129.518 252.11 129.471C252.062 129.425 252.025 129.37 251.999 129.309C251.973 129.248 251.96 129.183 251.96 129.117C251.96 129.05 251.973 128.985 251.999 128.924C252.025 128.863 252.062 128.808 252.11 128.762C252.157 128.716 252.213 128.679 252.275 128.655C252.336 128.631 252.402 128.62 252.468 128.621H259.405C259.534 128.625 259.657 128.678 259.747 128.771C259.837 128.863 259.888 128.987 259.888 129.117C259.888 129.246 259.837 129.37 259.747 129.462C259.657 129.555 259.534 129.609 259.405 129.612Z" fill="#262626"/>
<path d="M248.009 44.8575C247.944 44.8576 247.88 44.8448 247.82 44.8199C247.76 44.7951 247.705 44.7586 247.659 44.7126C247.613 44.6666 247.576 44.612 247.552 44.5519C247.527 44.4918 247.514 44.4274 247.514 44.3624V33.7327C247.512 33.6666 247.524 33.6008 247.548 33.5393C247.572 33.4777 247.608 33.4216 247.654 33.3742C247.701 33.3269 247.756 33.2892 247.817 33.2635C247.878 33.2378 247.943 33.2246 248.009 33.2246C248.075 33.2246 248.141 33.2378 248.202 33.2635C248.263 33.2892 248.318 33.3269 248.364 33.3742C248.41 33.4216 248.446 33.4777 248.47 33.5393C248.495 33.6008 248.506 33.6666 248.504 33.7327V44.3624C248.504 44.4937 248.452 44.6196 248.359 44.7125C248.267 44.8054 248.141 44.8575 248.009 44.8575Z" fill="#262626"/>
<path d="M251.478 39.5435H244.541C244.475 39.5452 244.409 39.5337 244.348 39.5095C244.286 39.4854 244.23 39.4492 244.183 39.403C244.135 39.3568 244.098 39.3017 244.072 39.2407C244.046 39.1798 244.033 39.1143 244.033 39.0482C244.033 38.9821 244.046 38.9166 244.072 38.8557C244.098 38.7948 244.135 38.7396 244.183 38.6934C244.23 38.6473 244.286 38.611 244.348 38.5869C244.409 38.5628 244.475 38.5512 244.541 38.5529H251.478C251.607 38.5562 251.73 38.6098 251.82 38.7023C251.91 38.7949 251.961 38.919 251.961 39.0482C251.961 39.1774 251.91 39.3015 251.82 39.3941C251.73 39.4866 251.607 39.5402 251.478 39.5435H251.478Z" fill="#262626"/>
<path d="M80.8896 77.7197H82.4499V63.2324H80.8896C80.1911 63.2324 79.625 63.7986 79.625 64.497V76.4551C79.6248 77.1536 80.1911 77.7197 80.8896 77.7197Z" fill="#143A1C"/>
<path d="M80.8896 95.2822H82.4499V80.7949H80.8896C80.1911 80.7949 79.625 81.3611 79.625 82.0595V94.0176C79.6248 94.7159 80.1911 95.2822 80.8896 95.2822Z" fill="#143A1C"/>
<path d="M189.08 90.0509H187.221V65.0449H189.08C190.141 65.0449 191.002 65.9056 191.002 66.9672V88.1285C191.002 89.1902 190.142 90.0509 189.08 90.0509Z" fill="#143A1C"/>
<path d="M170.013 16.0762H100.472C90.1878 16.0762 81.8506 24.5069 81.8506 34.9068V206.849C81.8506 217.249 90.1878 225.679 100.472 225.679H170.013C180.297 225.679 188.635 217.249 188.635 206.849V152.618V130.424V34.9066C188.635 24.5068 180.298 16.0762 170.013 16.0762Z" fill="#143A1C"/>
<path d="M98.996 220.985C91.4978 220.985 85.3975 213.805 85.3975 206.455V33.8611C85.3975 26.511 91.4978 20.5312 98.996 20.5312H171.007C178.505 20.5312 184.606 26.511 184.606 33.8611V206.455C184.606 213.805 178.505 220.985 171.007 220.985H98.996Z" fill="white"/>
<path d="M170.243 222.64H100.24C91.4939 222.64 84.3779 215.444 84.3779 206.6V35.1553C84.3779 26.3108 91.4937 19.1152 100.24 19.1152H170.243C178.99 19.1152 186.106 26.3108 186.106 35.1555V206.6C186.106 215.444 178.99 222.64 170.243 222.64ZM100.24 21.2508C92.6584 21.2508 86.4898 27.4884 86.4898 35.1553V206.6C86.4898 214.267 92.6582 220.504 100.24 220.504H170.243C177.825 220.504 183.994 214.267 183.994 206.6V35.1555C183.994 27.4886 177.825 21.251 170.243 21.251H100.24V21.2508Z" fill="#1A4C25"/>
<rect x="120.673" y="27.7891" width="29.292" height="9.22157" rx="4.61078" fill="#1A4C25"/>
<path d="M152.248 96.0935L119.447 96.0713C118.823 96.0704 118.211 95.9021 117.674 95.584C117.137 95.2659 116.696 94.8096 116.396 94.2627C116.095 93.7158 115.947 93.0983 115.967 92.4746C115.986 91.8509 116.173 91.2439 116.507 90.7169L132.924 64.849C133.239 64.3533 133.674 63.9452 134.189 63.6626C134.704 63.38 135.282 63.232 135.87 63.2324C136.457 63.2328 137.035 63.3815 137.549 63.6648C138.064 63.9481 138.498 64.3568 138.813 64.8529L155.196 90.744C155.529 91.2715 155.714 91.8787 155.733 92.5022C155.752 93.1258 155.603 93.7429 155.301 94.2893C155 94.8357 154.558 95.2913 154.021 95.6086C153.484 95.9259 152.872 96.0934 152.248 96.0935Z" fill="#F87171"/>
<path d="M133.309 89.3573C133.329 88.857 133.496 88.3737 133.789 87.9676C134.082 87.5614 134.488 87.2504 134.956 87.0731C135.425 86.8958 135.935 86.8602 136.423 86.9705C136.912 87.0808 137.357 87.3324 137.704 87.6937C138.05 88.0551 138.283 88.5105 138.373 89.0031C138.463 89.4957 138.406 90.0039 138.209 90.4644C138.013 90.925 137.685 91.3175 137.267 91.5933C136.849 91.8691 136.359 92.0159 135.858 92.0155C135.514 92.015 135.174 91.945 134.858 91.8099C134.542 91.6747 134.256 91.4771 134.018 91.2289C133.78 90.9807 133.594 90.687 133.472 90.3655C133.351 90.0439 133.295 89.701 133.309 89.3573ZM133.893 76.223L133.752 72.4023L137.989 72.4048L137.844 76.2258L137.25 85.0193H134.475L133.893 76.223Z" fill="white"/>
<path d="M20.2659 39.8139L20.6159 39.6642L20.747 39.6736C23.1839 39.8293 25.6839 39.6897 28.1282 39.6843C33.22 39.6991 38.3117 39.6845 43.4031 39.6403C45.5803 39.6385 48.7207 39.3612 50.7618 39.7509C50.8419 39.7667 50.921 39.7858 50.9996 39.808C51.078 39.8302 51.1555 39.8555 51.232 39.8838C51.3085 39.9119 51.3838 39.9433 51.4577 39.9776C51.5317 40.0118 51.6041 40.0491 51.6752 40.0892C51.7463 40.1294 51.8155 40.1721 51.8833 40.2177C51.9508 40.2633 52.0164 40.3117 52.0802 40.3625C52.144 40.4132 52.2056 40.4664 52.2653 40.5221C52.3248 40.5778 52.382 40.6359 52.437 40.6961C52.88 41.1797 53.0236 41.7238 53.0989 42.3633C53.2496 43.6396 53.178 44.9797 53.1816 46.2652L53.1948 52.8931C53.1993 55.8028 53.4536 59.0134 53.2267 61.882C53.1301 63.1024 52.7374 64.2554 51.7553 65.0434C51.1217 65.5518 50.41 65.8397 49.6064 65.9285C48.5362 66.0468 47.3999 65.9655 46.3227 65.9552C44.4558 65.9327 42.5888 65.9214 40.7219 65.9212L21.4965 66.0595L21.0341 66.0664C18.9917 66.1554 16.6467 66.413 14.6296 66.0883C13.5372 65.9127 12.7008 65.4588 12.0762 64.5209C11.7524 64.0346 11.6273 63.5572 11.5737 62.9822C11.3279 60.3544 11.525 57.534 11.5078 54.8895C11.483 52.0135 11.4799 49.1374 11.4981 46.2612C11.5066 44.9303 11.3671 43.2894 11.6594 41.9984C11.8063 41.3497 12.1924 40.5268 12.7955 40.1903C13.8744 39.5884 18.9868 39.4951 20.2659 39.8139Z" fill="#EAF3EC"/>
<path d="M14.8584 55.0898C24.4093 55.3121 34.0045 55.13 43.5618 55.1479C45.2202 55.151 46.8951 55.0785 48.5497 55.1021C48.856 55.1066 49.1708 55.1144 49.4506 55.2525C49.6364 55.3444 49.6428 55.5723 49.7033 55.7567C48.0035 55.8974 46.2046 55.7879 44.4945 55.7876L34.6027 55.7893L20.0577 55.7872C18.6732 55.7782 17.2403 55.9003 15.8669 55.8415C15.5907 55.8297 15.2655 55.8176 15.0235 55.6693C14.8726 55.577 14.8839 55.2592 14.8584 55.0898Z" fill="#2C7E3D"/>
<path d="M14.8691 59.8267L37.3977 59.7955C41.1478 59.8028 44.9279 59.7436 48.6729 59.847C48.9905 59.8557 49.1624 59.8982 49.4058 60.0964L49.4276 60.5139L33.7468 60.448C32.0206 60.4539 15.5443 60.6669 15.1225 60.5292C15.0448 60.5037 14.9853 60.4406 14.9166 60.3963L14.8691 59.8267Z" fill="#2C7E3D"/>
<path d="M16.5835 45.6586C18.194 45.58 22.1928 45.2402 23.4627 46.0218C23.7815 46.2181 24.0073 46.5014 24.0441 46.887C24.0909 47.3768 23.7163 48.1275 23.3638 48.4588C23.0972 48.7091 22.6915 48.6963 22.3484 48.7162C20.6822 48.7256 17.164 49.0994 15.736 48.5374C15.3346 48.3792 14.928 48.1216 14.7842 47.6908C14.6524 47.2965 14.7837 46.8011 15.0005 46.457C15.3795 45.8553 15.9389 45.7857 16.5835 45.6586Z" fill="#FEFEFE"/>
<path d="M226.113 197.623C232.417 197.486 238.757 197.656 245.063 197.681C251.686 197.707 258.339 197.598 264.956 197.839L265.877 197.907C268.26 197.871 270.723 197.502 272.599 199.293C273.683 200.329 273.274 207.779 273.26 209.57C273.24 212.392 273.173 215.212 273.18 218.034C273.186 219.993 273.319 222.043 273.157 223.992C273.097 224.703 273.005 226.048 272.519 226.568C271.432 227.732 269.874 227.797 268.393 227.784L265.856 227.764L265.005 227.729C255.96 227.651 246.915 227.621 237.87 227.637L230.262 227.663C228.97 227.667 227.425 227.811 226.165 227.556C225.579 227.437 224.885 226.997 224.56 226.489C224.158 225.862 224.025 225.076 223.958 224.346C223.687 221.389 223.936 218.237 223.943 215.252C223.95 212.287 223.606 201.775 224.232 199.611C224.526 198.594 225.23 198.121 226.113 197.623Z" fill="#EAF3EC"/>
<path d="M229.335 215.386C237.216 215.11 245.168 215.306 253.059 215.285L262.742 215.263C264.501 215.26 266.319 215.159 268.069 215.308C268.251 215.323 268.38 215.381 268.534 215.477C268.724 215.801 268.727 215.838 268.707 216.214C268.451 216.546 268.463 216.519 268.045 216.584C258.689 216.284 249.268 216.47 239.905 216.463C237.652 216.467 235.399 216.483 233.146 216.511C232 216.522 230.79 216.605 229.651 216.504C229.207 216.464 229.003 216.431 228.657 216.148L228.632 215.894C228.883 215.544 228.926 215.535 229.335 215.386Z" fill="#2C7E3D"/>
<path d="M256.06 220.531C259.771 220.466 263.491 220.475 267.203 220.455C267.756 220.452 268.344 220.365 268.754 220.77C268.792 221.111 268.814 221.319 268.708 221.654C267.844 222.035 244.877 221.791 242.164 221.795C240.356 221.801 229.754 222.075 228.95 221.602L228.856 221.199L229.021 220.936C229.472 220.705 229.894 220.63 230.4 220.596C233.174 220.409 236.062 220.586 238.847 220.587C244.584 220.598 250.322 220.579 256.06 220.531Z" fill="#2C7E3D"/>
<path d="M233.259 200.75C234.553 200.674 235.662 200.802 236.831 201.431C238.216 202.175 239.33 203.402 239.732 204.942C240.115 206.405 239.853 208.071 239.077 209.365C238.201 210.826 236.911 211.436 235.331 211.842C233.982 212.007 232.708 211.941 231.471 211.307C231.39 211.266 231.31 211.223 231.231 211.177C231.153 211.132 231.075 211.085 230.999 211.036C230.922 210.987 230.847 210.936 230.774 210.883C230.7 210.83 230.628 210.775 230.556 210.719C230.485 210.662 230.416 210.604 230.348 210.544C230.28 210.484 230.213 210.422 230.148 210.359C230.083 210.295 230.02 210.23 229.958 210.164C229.896 210.097 229.836 210.029 229.778 209.959C229.72 209.89 229.664 209.818 229.609 209.746C229.554 209.673 229.502 209.6 229.45 209.524C229.4 209.449 229.351 209.373 229.304 209.295C229.256 209.218 229.211 209.139 229.168 209.059C229.125 208.979 229.084 208.898 229.045 208.816C229.006 208.734 228.969 208.652 228.934 208.568C228.899 208.484 228.866 208.399 228.836 208.314C228.805 208.228 228.777 208.142 228.751 208.055C228.722 207.964 228.695 207.871 228.671 207.778C228.647 207.685 228.625 207.591 228.606 207.497C228.587 207.403 228.57 207.308 228.556 207.213C228.541 207.118 228.529 207.023 228.52 206.927C228.51 206.831 228.503 206.735 228.499 206.639C228.494 206.543 228.492 206.447 228.492 206.351C228.492 206.255 228.495 206.159 228.501 206.063C228.506 205.967 228.514 205.871 228.524 205.775C228.534 205.68 228.547 205.584 228.562 205.489C228.577 205.394 228.595 205.3 228.615 205.206C228.635 205.112 228.657 205.018 228.682 204.925C228.707 204.833 228.734 204.74 228.764 204.649C228.793 204.557 228.825 204.467 228.86 204.377C228.894 204.287 228.93 204.198 228.969 204.11C229.008 204.022 229.049 203.935 229.092 203.849C229.135 203.763 229.181 203.679 229.228 203.595C230.137 202.021 231.546 201.184 233.259 200.75Z" fill="#F3D663"/>
<path d="M146.634 190.159H122.576C120.72 190.159 119.215 188.654 119.215 186.797V149.295H149.995V186.797C149.995 188.654 148.49 190.159 146.634 190.159Z" fill="#FEE2E2"/>
<path fill-rule="evenodd" clip-rule="evenodd" d="M133.767 118.697C133.906 117.834 134.719 117.247 135.582 117.386L139.284 117.982C140.147 118.121 140.734 118.933 140.596 119.796L140.429 120.826L151.686 122.641C152.457 122.765 152.982 123.491 152.858 124.263L152.745 124.961L120.61 119.784L120.723 119.086C120.847 118.314 121.573 117.789 122.345 117.913L133.602 119.727L133.767 118.697ZM135.455 118.172C135.027 118.103 134.622 118.395 134.553 118.823L134.387 119.854L139.643 120.7L139.809 119.67C139.878 119.241 139.586 118.837 139.158 118.768L135.455 118.172Z" fill="#FEE2E2"/>
<path d="M124.816 183.437V156.214C124.816 155.948 124.601 155.732 124.335 155.732C124.069 155.732 123.854 155.948 123.854 156.214V183.437C123.854 183.703 124.069 183.918 124.335 183.918C124.601 183.918 124.816 183.703 124.816 183.437Z" fill="#F87171"/>
<path d="M131.664 183.437V156.214C131.664 155.948 131.448 155.732 131.183 155.732C130.917 155.732 130.701 155.948 130.701 156.214V183.437C130.701 183.703 130.917 183.918 131.183 183.918C131.448 183.918 131.664 183.703 131.664 183.437Z" fill="#F87171"/>
<path d="M138.511 183.437V156.214C138.511 155.948 138.295 155.732 138.029 155.732C137.763 155.732 137.548 155.948 137.548 156.214V183.437C137.548 183.703 137.763 183.918 138.029 183.918C138.295 183.918 138.511 183.703 138.511 183.437Z" fill="#F87171"/>
<path d="M145.357 183.437V156.214C145.357 155.948 145.142 155.732 144.876 155.732C144.61 155.732 144.395 155.948 144.395 156.214V183.437C144.395 183.703 144.61 183.918 144.876 183.918C145.142 183.918 145.357 183.703 145.357 183.437Z" fill="#F87171"/>
<path d="M149.982 194.358C147.677 194.358 145.803 192.484 145.803 190.179C145.803 187.875 147.677 186 149.982 186C152.286 186 154.161 187.875 154.161 190.179C154.161 192.484 152.286 194.358 149.982 194.358Z" fill="#F87171"/>
<path d="M151.469 187.951L147.754 191.666L148.493 192.405L152.207 188.69L151.469 187.951Z" fill="white"/>
<path d="M148.493 187.953L147.754 188.691L151.469 192.406L152.207 191.667L148.493 187.953Z" fill="white"/>
<g clip-path="url(#clip0_356_17794)">
<path opacity="0.5" d="M135.345 128.613L131.466 129.769C127.809 130.859 125.979 131.405 125.183 132.88C124.386 134.355 124.93 136.184 126.02 139.841C127.11 143.498 127.655 145.327 129.13 146.124C130.606 146.921 132.434 146.377 136.091 145.287L139.971 144.13C143.628 143.04 145.457 142.495 146.254 141.02C147.051 139.545 146.507 137.716 145.417 134.059C144.327 130.402 143.781 128.573 142.306 127.776C140.831 126.979 139.002 127.523 135.345 128.613Z" fill="#A0CAA9"/>
<path d="M136.063 133.68C136.005 133.487 136.027 133.279 136.123 133.102C136.218 132.925 136.38 132.793 136.573 132.735L141.423 131.29C141.616 131.232 141.823 131.254 142 131.35C142.178 131.445 142.309 131.608 142.367 131.801C142.424 131.993 142.403 132.201 142.307 132.378C142.211 132.555 142.049 132.687 141.856 132.745L137.007 134.19C136.814 134.248 136.606 134.226 136.429 134.131C136.252 134.035 136.12 133.873 136.063 133.68ZM137.9 136.3C137.842 136.107 137.864 135.899 137.96 135.722C138.055 135.545 138.218 135.413 138.41 135.356L142.29 134.2C142.483 134.142 142.691 134.164 142.868 134.259C143.045 134.355 143.177 134.517 143.234 134.71C143.292 134.903 143.27 135.111 143.174 135.288C143.079 135.465 142.916 135.597 142.724 135.654L138.844 136.811C138.651 136.868 138.443 136.847 138.266 136.751C138.089 136.655 137.957 136.493 137.9 136.3ZM139.737 138.921C139.68 138.728 139.701 138.52 139.797 138.343C139.893 138.166 140.055 138.034 140.248 137.976L143.157 137.109C143.35 137.052 143.558 137.073 143.735 137.169C143.912 137.265 144.044 137.427 144.101 137.62C144.159 137.813 144.137 138.02 144.042 138.197C143.946 138.375 143.784 138.506 143.591 138.564L140.681 139.431C140.488 139.489 140.28 139.467 140.103 139.371C139.926 139.276 139.795 139.113 139.737 138.921ZM132.519 136.848C133.034 136.695 133.466 136.343 133.721 135.871C133.977 135.399 134.034 134.845 133.881 134.33C133.727 133.816 133.376 133.383 132.904 133.128C132.432 132.873 131.877 132.815 131.363 132.969C130.848 133.122 130.416 133.473 130.161 133.946C129.905 134.418 129.848 134.972 130.001 135.487C130.155 136.001 130.506 136.433 130.978 136.689C131.45 136.944 132.005 137.001 132.519 136.848ZM134.254 142.667C138.133 141.511 137.874 140.643 137.555 139.571C137.235 138.499 135.241 138.149 133.097 138.788C130.954 139.427 129.477 140.812 129.796 141.884C130.116 142.955 130.374 143.823 134.254 142.667Z" fill="#2C7E3D"/>
</g>
<defs>
<clipPath id="clip0_356_17794">
<rect width="24.2884" height="24.2884" fill="white" transform="translate(120.61 128.781) rotate(-16.5984)"/>
</clipPath>
</defs>
</svg>
