<svg width="8" height="26" viewBox="0 0 8 26" fill="none" xmlns="http://www.w3.org/2000/svg">
<path d="M4.18164 0.5C4.18164 0.223858 3.95778 1.20706e-08 3.68164 0C3.4055 -1.20706e-08 3.18164 0.223858 3.18164 0.5L3.68164 0.5L4.18164 0.5ZM3.32809 25.8536C3.52335 26.0488 3.83993 26.0488 4.03519 25.8536L7.21717 22.6716C7.41244 22.4763 7.41244 22.1597 7.21717 21.9645C7.02191 21.7692 6.70533 21.7692 6.51007 21.9645L3.68164 24.7929L0.853213 21.9645C0.65795 21.7692 0.341368 21.7692 0.146106 21.9645C-0.0491564 22.1597 -0.0491564 22.4763 0.146106 22.6716L3.32809 25.8536ZM3.18164 1.54167C3.18164 1.81781 3.4055 2.04167 3.68164 2.04167C3.95778 2.04167 4.18164 1.81781 4.18164 1.54167L3.68164 1.54167L3.18164 1.54167ZM4.18164 3.625C4.18164 3.34886 3.95778 3.125 3.68164 3.125C3.4055 3.125 3.18164 3.34886 3.18164 3.625L3.68164 3.625L4.18164 3.625ZM3.18164 5.70833C3.18164 5.98448 3.4055 6.20833 3.68164 6.20833C3.95778 6.20833 4.18164 5.98448 4.18164 5.70833L3.68164 5.70833L3.18164 5.70833ZM4.18164 7.79167C4.18164 7.51552 3.95778 7.29167 3.68164 7.29167C3.4055 7.29167 3.18164 7.51552 3.18164 7.79167L3.68164 7.79167L4.18164 7.79167ZM3.18164 9.875C3.18164 10.1511 3.4055 10.375 3.68164 10.375C3.95778 10.375 4.18164 10.1511 4.18164 9.875L3.68164 9.875L3.18164 9.875ZM4.18164 11.9583C4.18164 11.6822 3.95778 11.4583 3.68164 11.4583C3.4055 11.4583 3.18164 11.6822 3.18164 11.9583L3.68164 11.9583L4.18164 11.9583ZM3.18164 14.0417C3.18164 14.3178 3.4055 14.5417 3.68164 14.5417C3.95778 14.5417 4.18164 14.3178 4.18164 14.0417L3.68164 14.0417L3.18164 14.0417ZM4.18164 16.125C4.18164 15.8489 3.95778 15.625 3.68164 15.625C3.4055 15.625 3.18164 15.8489 3.18164 16.125L3.68164 16.125L4.18164 16.125ZM3.18164 18.2083C3.18164 18.4845 3.4055 18.7083 3.68164 18.7083C3.95778 18.7083 4.18164 18.4845 4.18164 18.2083L3.68164 18.2083L3.18164 18.2083ZM4.18164 20.2917C4.18164 20.0155 3.95778 19.7917 3.68164 19.7917C3.4055 19.7917 3.18164 20.0155 3.18164 20.2917L3.68164 20.2917L4.18164 20.2917ZM3.18164 22.375C3.18164 22.6511 3.4055 22.875 3.68164 22.875C3.95778 22.875 4.18164 22.6511 4.18164 22.375L3.68164 22.375L3.18164 22.375ZM4.18164 24.4583C4.18164 24.1822 3.95778 23.9583 3.68164 23.9583C3.4055 23.9583 3.18164 24.1822 3.18164 24.4583L3.68164 24.4583L4.18164 24.4583ZM3.68164 0.5L3.18164 0.5L3.18164 1.54167L3.68164 1.54167L4.18164 1.54167L4.18164 0.5L3.68164 0.5ZM3.68164 3.625L3.18164 3.625L3.18164 5.70833L3.68164 5.70833L4.18164 5.70833L4.18164 3.625L3.68164 3.625ZM3.68164 7.79167L3.18164 7.79167L3.18164 9.875L3.68164 9.875L4.18164 9.875L4.18164 7.79167L3.68164 7.79167ZM3.68164 11.9583L3.18164 11.9583L3.18164 14.0417L3.68164 14.0417L4.18164 14.0417L4.18164 11.9583L3.68164 11.9583ZM3.68164 16.125L3.18164 16.125L3.18164 18.2083L3.68164 18.2083L4.18164 18.2083L4.18164 16.125L3.68164 16.125ZM3.68164 20.2917L3.18164 20.2917L3.18164 22.375L3.68164 22.375L4.18164 22.375L4.18164 20.2917L3.68164 20.2917ZM3.68164 24.4583L3.18164 24.4583L3.18164 25.5L3.68164 25.5L4.18164 25.5L4.18164 24.4583L3.68164 24.4583Z" fill="#BDBEBF"/>
</svg>
