<svg width="20" height="16" viewBox="0 0 20 16" fill="none" xmlns="http://www.w3.org/2000/svg">
<path d="M14.75 4.75V2.75C14.75 1.64543 13.8546 0.75 12.75 0.75H2.75C1.64543 0.75 0.75 1.64543 0.75 2.75V8.75C0.75 9.85457 1.64543 10.75 2.75 10.75H4.75M6.75 14.75H16.75C17.8546 14.75 18.75 13.8546 18.75 12.75V6.75C18.75 5.64543 17.8546 4.75 16.75 4.75H6.75C5.64543 4.75 4.75 5.64543 4.75 6.75V12.75C4.75 13.8546 5.64543 14.75 6.75 14.75ZM13.75 9.75C13.75 10.8546 12.8546 11.75 11.75 11.75C10.6454 11.75 9.75 10.8546 9.75 9.75C9.75 8.64543 10.6454 7.75 11.75 7.75C12.8546 7.75 13.75 8.64543 13.75 9.75Z" stroke="#9D9EA1" stroke-width="1.5" stroke-linecap="round" stroke-linejoin="round"/>
</svg>
