<svg width="225" height="199" viewBox="0 0 225 199" fill="none" xmlns="http://www.w3.org/2000/svg">
<g clip-path="url(#clip0_356_17117)">
<path d="M112.5 198.92C167.427 198.92 211.954 154.394 211.954 99.4671C211.954 44.5405 167.427 0.0136719 112.5 0.0136719C57.5737 0.0136719 13.0469 44.5405 13.0469 99.4671C13.0469 154.394 57.5737 198.92 112.5 198.92Z" fill="white"/>
<path opacity="0.1" d="M112.5 198.92C167.427 198.92 211.954 154.394 211.954 99.4671C211.954 44.5405 167.427 0.0136719 112.5 0.0136719C57.5737 0.0136719 13.0469 44.5405 13.0469 99.4671C13.0469 154.394 57.5737 198.92 112.5 198.92Z" fill="#308B43"/>
<path d="M47.8646 133.246L0.302734 133.102L0.498427 68.4902L33.3863 68.5899L48.0157 83.3084L47.8646 133.246Z" fill="white"/>
<path opacity="0.3" d="M33.3863 68.5898L33.3418 83.2638L48.0157 83.3083L33.3863 68.5898Z" fill="#308B43"/>
<path d="M48.3152 83.2904C48.3134 83.2639 48.3082 83.2377 48.2998 83.2125C48.2964 83.2028 48.294 83.1934 48.2898 83.1837C48.2756 83.1508 48.2556 83.1207 48.2307 83.095L33.6013 68.3765C33.5756 68.3512 33.5455 68.3307 33.5125 68.3159C33.5033 68.312 33.4939 68.3086 33.4844 68.3056C33.459 68.2968 33.4325 68.2915 33.4056 68.2899C33.3992 68.2899 33.3935 68.286 33.3871 68.286L0.499531 68.1875C0.419189 68.1875 0.342138 68.2194 0.285328 68.2762C0.228517 68.333 0.196602 68.4101 0.196602 68.4904L0 133.101C0 133.182 0.0319157 133.259 0.0887261 133.316C0.145537 133.372 0.222588 133.404 0.30293 133.404L47.8629 133.549C47.9433 133.549 48.0203 133.518 48.0771 133.461C48.1339 133.404 48.1659 133.327 48.1659 133.247L48.3173 83.3086C48.3188 83.3028 48.3155 83.297 48.3152 83.2904ZM33.6858 69.3226L40.4411 76.1164L47.2855 83.0026L33.6458 82.9611L33.6858 69.3226ZM0.60586 132.8L0.799735 68.7943L33.0815 68.8921L33.0381 83.2631C33.0381 83.3435 33.0701 83.4205 33.1269 83.4773C33.1837 83.5341 33.2607 83.566 33.3411 83.566L47.7121 83.6097L47.5627 132.942L0.60586 132.8Z" fill="#2A2D32"/>
<path d="M144.826 130.661L79.9678 130.464L80.2347 42.3555L125.083 42.4915L145.032 62.5624L144.826 130.661Z" fill="white"/>
<path opacity="0.3" d="M125.083 42.4922L125.022 62.5025L145.033 62.5631L125.083 42.4922Z" fill="#308B43"/>
<path d="M145.332 62.5446C145.33 62.5182 145.325 62.4921 145.317 62.467C145.313 62.4571 145.311 62.4477 145.306 62.4368C145.292 62.4039 145.272 62.3738 145.248 62.348L125.298 42.2771C125.272 42.2517 125.242 42.2312 125.209 42.2165C125.2 42.2122 125.191 42.2098 125.181 42.2065C125.155 42.1977 125.129 42.1923 125.102 42.1904C125.096 42.1904 125.09 42.1868 125.084 42.1868L80.2358 42.0508C80.1555 42.0508 80.0784 42.0827 80.0216 42.1395C79.9648 42.1963 79.9329 42.2734 79.9329 42.3537L79.666 130.463C79.666 130.543 79.6979 130.62 79.7547 130.677C79.8115 130.734 79.8886 130.766 79.9689 130.766L144.826 130.962C144.907 130.962 144.984 130.93 145.04 130.874C145.097 130.817 145.129 130.74 145.129 130.659L145.335 62.5607C145.335 62.557 145.332 62.5513 145.332 62.5446ZM125.383 43.224L144.302 62.2577L125.325 62.2002L125.383 43.224ZM80.2719 130.163L80.5369 42.6597L124.779 42.7939L124.718 62.5013C124.718 62.5816 124.75 62.6587 124.807 62.7155C124.864 62.7723 124.941 62.8042 125.021 62.8042L144.729 62.8648L144.524 130.358L80.2719 130.163Z" fill="#2A2D32"/>
<path d="M224.545 133.246L176.983 133.102L177.179 68.4902L210.067 68.5899L224.696 83.3084L224.545 133.246Z" fill="white"/>
<path opacity="0.3" d="M210.067 68.5898L210.022 83.2638L224.696 83.3083L210.067 68.5898Z" fill="#308B43"/>
<path d="M224.996 83.2896C224.994 83.2631 224.989 83.2369 224.981 83.2118C224.977 83.2021 224.975 83.1927 224.97 83.183C224.956 83.1501 224.936 83.1201 224.912 83.0942L210.282 68.3758C210.256 68.3505 210.226 68.3299 210.194 68.3152C210.184 68.311 210.175 68.3082 210.165 68.3049C210.14 68.2961 210.113 68.2908 210.087 68.2892C210.08 68.2892 210.075 68.2852 210.068 68.2852L177.18 68.1855C177.1 68.1855 177.023 68.2175 176.966 68.2743C176.909 68.3311 176.877 68.4081 176.877 68.4885L176.682 133.1C176.682 133.181 176.714 133.258 176.77 133.315C176.827 133.371 176.904 133.403 176.985 133.403L224.546 133.548C224.627 133.548 224.704 133.516 224.761 133.459C224.817 133.402 224.849 133.325 224.849 133.245L225.001 83.3066C225 83.3021 224.996 83.2963 224.996 83.2896ZM210.368 69.3218L217.121 76.1157L223.966 83.0019L210.327 82.9604L210.368 69.3218ZM177.288 132.8L177.482 68.7935L209.764 68.8914L209.72 83.2624C209.72 83.3427 209.752 83.4198 209.809 83.4766C209.866 83.5334 209.943 83.5653 210.023 83.5653L224.394 83.6089L224.245 132.941L177.288 132.8Z" fill="#2A2D32"/>
<path d="M96.3001 93.7017C98.8076 93.7017 100.84 91.6689 100.84 89.1614C100.84 86.6539 98.8076 84.6211 96.3001 84.6211C93.7925 84.6211 91.7598 86.6539 91.7598 89.1614C91.7598 91.6689 93.7925 93.7017 96.3001 93.7017Z" fill="#707276"/>
<path d="M127.433 93.7017C129.94 93.7017 131.973 91.6689 131.973 89.1614C131.973 86.6539 129.94 84.6211 127.433 84.6211C124.925 84.6211 122.893 86.6539 122.893 89.1614C122.893 91.6689 124.925 93.7017 127.433 93.7017Z" fill="#707276"/>
<path d="M117.954 101.717H105.779C105.699 101.717 105.622 101.685 105.565 101.628C105.508 101.572 105.477 101.495 105.477 101.414C105.477 101.334 105.508 101.257 105.565 101.2C105.622 101.143 105.699 101.111 105.779 101.111H117.954C118.034 101.111 118.111 101.143 118.168 101.2C118.225 101.257 118.257 101.334 118.257 101.414C118.257 101.495 118.225 101.572 118.168 101.628C118.111 101.685 118.034 101.717 117.954 101.717Z" fill="#2A2D32"/>
<path d="M91.6166 102.148C93.8534 102.148 95.6667 101.194 95.6667 100.016C95.6667 98.8392 93.8534 97.8848 91.6166 97.8848C89.3797 97.8848 87.5664 98.8392 87.5664 100.016C87.5664 101.194 89.3797 102.148 91.6166 102.148Z" fill="white"/>
<path d="M132.117 102.148C134.353 102.148 136.167 101.194 136.167 100.016C136.167 98.8392 134.353 97.8848 132.117 97.8848C129.88 97.8848 128.066 98.8392 128.066 100.016C128.066 101.194 129.88 102.148 132.117 102.148Z" fill="white"/>
<g opacity="0.4">
<path d="M91.6166 102.148C93.8534 102.148 95.6667 101.194 95.6667 100.016C95.6667 98.8392 93.8534 97.8848 91.6166 97.8848C89.3797 97.8848 87.5664 98.8392 87.5664 100.016C87.5664 101.194 89.3797 102.148 91.6166 102.148Z" fill="#308B43"/>
<path d="M132.117 102.148C134.353 102.148 136.167 101.194 136.167 100.016C136.167 98.8392 134.353 97.8848 132.117 97.8848C129.88 97.8848 128.066 98.8392 128.066 100.016C128.066 101.194 129.88 102.148 132.117 102.148Z" fill="#308B43"/>
</g>
<path d="M145.13 63.2841C137.399 54.4081 126.459 48.9664 114.716 48.1562C102.973 47.3459 91.3892 51.2333 82.5124 58.9634C67.6821 71.8794 63.1249 93.3529 71.4321 111.189C73.1001 114.762 75.2389 118.097 77.7915 121.103L78.3368 121.75L37.686 164.89C36.9426 165.691 36.5459 166.753 36.5824 167.844C36.6188 168.936 37.0855 169.969 37.8806 170.718C38.6758 171.467 39.7348 171.872 40.8268 171.843C41.9189 171.814 42.9553 171.355 43.7101 170.566L84.3509 127.432L85.0297 127.94C93.7999 134.518 104.695 137.618 115.614 136.642C126.534 135.666 136.706 130.682 144.17 122.653C151.634 114.623 155.862 104.114 156.04 93.1527C156.217 82.1909 152.331 71.5513 145.131 63.2841H145.13ZM147.678 94.9185C147.049 104.033 142.988 112.57 136.314 118.809C129.64 125.048 120.85 128.525 111.714 128.54C110.87 128.54 110.024 128.51 109.174 128.449C103.244 128.047 97.5047 126.187 92.4653 123.035C87.4259 119.883 83.2422 115.536 80.2851 110.38C77.3281 105.224 75.6891 99.4175 75.5136 93.4761C75.338 87.5347 76.6313 81.6418 79.2788 76.32C81.9262 70.9981 85.846 66.4118 90.6905 62.9678C95.535 59.5237 101.155 57.3283 107.051 56.5763C112.947 55.8243 118.938 56.5389 124.492 58.6567C130.046 60.7746 134.991 64.2302 138.889 68.7171C142.013 72.2873 144.397 76.441 145.906 80.9382C147.415 85.4355 148.017 90.1871 147.678 94.9185Z" fill="#308B43"/>
</g>
<defs>
<clipPath id="clip0_356_17117">
<rect width="225" height="198.934" fill="white"/>
</clipPath>
</defs>
</svg>
