<svg width="24" height="24" viewBox="0 0 24 24" fill="none" xmlns="http://www.w3.org/2000/svg">
<path opacity="0.987" fill-rule="evenodd" clip-rule="evenodd" d="M10.8144 1.59112C11.9019 1.46962 12.5454 1.46962 13.7139 1.59112C15.7823 1.89727 17.6997 2.85335 19.1889 4.32113C18.1825 5.27233 17.1894 6.23742 16.2099 7.21612C14.3339 5.62612 12.2399 5.25912 9.92785 6.11513C8.23185 6.89512 7.05085 8.15913 6.38485 9.90713C5.29651 9.09687 4.22235 8.26774 3.16285 7.42013C3.08922 7.38137 3.00512 7.36718 2.92285 7.37962C4.60585 4.13462 7.23585 2.20462 10.8129 1.58962" fill="#F44336"/>
<path opacity="0.997" fill-rule="evenodd" clip-rule="evenodd" d="M2.91938 7.37978C3.00438 7.36678 3.08488 7.38028 3.16088 7.42028C4.22038 8.2679 5.29454 9.09703 6.38288 9.90728C6.21162 10.5884 6.10366 11.2838 6.06038 11.9848C6.09738 12.6628 6.20488 13.3283 6.38288 13.9813L3.00038 16.6738C1.52738 13.5958 1.50038 10.4978 2.91938 7.37978Z" fill="#FFC107"/>
<path opacity="0.999" fill-rule="evenodd" clip-rule="evenodd" d="M19.0281 19.9341C17.9749 19.0053 16.8723 18.134 15.7251 17.3241C16.8751 16.5121 17.5731 15.3981 17.8191 13.9821H12.1836V10.0686C15.4336 10.0416 18.6821 10.0691 21.9291 10.1511C22.5451 13.4961 21.8336 16.5121 19.7946 19.1991C19.5521 19.4569 19.2953 19.7022 19.0281 19.9341Z" fill="#448AFF"/>
<path opacity="0.993" fill-rule="evenodd" clip-rule="evenodd" d="M6.3825 13.9824C7.6125 17.0394 9.8675 18.4664 13.1475 18.2634C14.0682 18.1568 14.951 17.8352 15.7245 17.3244C16.8725 18.1364 17.9735 19.0064 19.0275 19.9344C17.3575 21.4351 15.2282 22.3255 12.987 22.4604C12.4778 22.5011 11.9662 22.5011 11.457 22.4604C7.639 22.0104 4.82 20.0814 3 16.6734L6.3825 13.9824Z" fill="#43A047"/>
</svg>
