<svg width="32" height="32" viewBox="0 0 32 32" fill="none" xmlns="http://www.w3.org/2000/svg">
<path d="M24.068 8.10651C21.9714 6.01888 19.1333 4.84681 16.1746 4.84681C13.216 4.84681 10.3778 6.01888 8.2813 8.10651L6.66797 9.71984V5.83984C6.66797 5.57463 6.56261 5.32027 6.37508 5.13274C6.18754 4.9452 5.93319 4.83984 5.66797 4.83984C5.40275 4.83984 5.1484 4.9452 4.96086 5.13274C4.77333 5.32027 4.66797 5.57463 4.66797 5.83984V12.1598C4.66795 12.4263 4.77288 12.682 4.96004 12.8717C5.1472 13.0614 5.40153 13.1697 5.66797 13.1732H12.0013C12.2665 13.1732 12.5209 13.0678 12.7084 12.8803C12.8959 12.6927 13.0013 12.4384 13.0013 12.1732C13.0013 11.908 12.8959 11.6536 12.7084 11.4661C12.5209 11.2785 12.2665 11.1732 12.0013 11.1732H8.0013L9.69464 9.51984C11.4144 7.8035 13.7449 6.83956 16.1746 6.83956C18.6044 6.83956 20.9348 7.8035 22.6546 9.51984C30.908 18.4398 18.6546 30.7332 9.69464 22.4798C9.50713 22.2926 9.25297 22.1874 8.98797 22.1874C8.72297 22.1874 8.4688 22.2926 8.2813 22.4798C8.18696 22.5718 8.11198 22.6817 8.06078 22.803C8.00958 22.9244 7.98321 23.0548 7.98321 23.1865C7.98321 23.3182 8.00958 23.4486 8.06078 23.57C8.11198 23.6914 8.18696 23.8013 8.2813 23.8932C10.3747 25.9866 13.2141 27.1627 16.1746 27.1627C19.1352 27.1627 21.9745 25.9866 24.068 23.8932C26.1614 21.7997 27.3375 18.9604 27.3375 15.9998C27.3375 13.0393 26.1614 10.2 24.068 8.10651Z" fill="#308B43"/>
<path d="M16 10.332C15.7359 10.3355 15.4835 10.4419 15.2967 10.6287C15.1099 10.8155 15.0035 11.0679 15 11.332V15.9987C15.0002 16.2638 15.1057 16.518 15.2933 16.7054L18.6667 19.9987C18.759 20.0922 18.8691 20.1663 18.9904 20.2167C19.1118 20.267 19.2419 20.2927 19.3733 20.292C19.5489 20.2665 19.7146 20.1946 19.8532 20.0839C19.9919 19.9732 20.0986 19.8275 20.1624 19.662C20.2262 19.4964 20.2447 19.3168 20.2162 19.1417C20.1877 18.9665 20.1131 18.8021 20 18.6654L16.96 15.6254V11.332C16.957 11.0746 16.856 10.8279 16.6777 10.6422C16.4994 10.4565 16.2571 10.3456 16 10.332Z" fill="#308B43"/>
</svg>
