<svg width="20" height="20" viewBox="0 0 20 20" fill="none" xmlns="http://www.w3.org/2000/svg">
<path d="M0.75 9.75L2.75 7.75M2.75 7.75L9.75 0.75L16.75 7.75M2.75 7.75V17.75C2.75 18.3023 3.19772 18.75 3.75 18.75H6.75M16.75 7.75L18.75 9.75M16.75 7.75V17.75C16.75 18.3023 16.3023 18.75 15.75 18.75H12.75M6.75 18.75C7.30228 18.75 7.75 18.3023 7.75 17.75V13.75C7.75 13.1977 8.19772 12.75 8.75 12.75H10.75C11.3023 12.75 11.75 13.1977 11.75 13.75V17.75C11.75 18.3023 12.1977 18.75 12.75 18.75M6.75 18.75H12.75" stroke="#9D9EA1" stroke-width="1.5" stroke-linecap="round" stroke-linejoin="round"/>
</svg>
