<svg width="17" height="15" viewBox="0 0 17 15" fill="none" xmlns="http://www.w3.org/2000/svg">
<path d="M6.58333 3.25H2.41667C1.49619 3.25 0.75 3.99619 0.75 4.91667V12.4167C0.75 13.3371 1.49619 14.0833 2.41667 14.0833H14.0833C15.0038 14.0833 15.75 13.3371 15.75 12.4167V4.91667C15.75 3.99619 15.0038 3.25 14.0833 3.25H9.91667M6.58333 3.25V2.41667C6.58333 1.49619 7.32953 0.75 8.25 0.75C9.17047 0.75 9.91667 1.49619 9.91667 2.41667V3.25M6.58333 3.25C6.58333 4.17047 7.32953 4.91667 8.25 4.91667C9.17047 4.91667 9.91667 4.17047 9.91667 3.25M5.75 9.91667C6.67047 9.91667 7.41667 9.17048 7.41667 8.25C7.41667 7.32953 6.67047 6.58333 5.75 6.58333C4.82953 6.58333 4.08333 7.32953 4.08333 8.25C4.08333 9.17048 4.82953 9.91667 5.75 9.91667ZM5.75 9.91667C6.83852 9.91667 7.7645 10.6123 8.1077 11.5833M5.75 9.91667C4.66148 9.91667 3.73541 10.6123 3.39221 11.5833M10.75 7.41667H13.25M10.75 10.75H12.4167" stroke="#308B43" stroke-width="1.5" stroke-linecap="round" stroke-linejoin="round"/>
</svg>
