<svg width="19" height="17" viewBox="0 0 19 17" fill="none" xmlns="http://www.w3.org/2000/svg">
<path d="M3.577 16.25C3.43567 16.25 3.317 16.202 3.221 16.106C3.125 16.01 3.077 15.891 3.077 15.749C3.077 15.607 3.125 15.4883 3.221 15.393C3.317 15.2977 3.43567 15.25 3.577 15.25H14.923C15.065 15.25 15.1837 15.298 15.279 15.394C15.3743 15.49 15.4223 15.609 15.423 15.751C15.4237 15.893 15.3757 16.0117 15.279 16.107C15.1823 16.2023 15.0637 16.25 14.923 16.25H3.577ZM4.354 13.366C3.96067 13.366 3.618 13.2427 3.326 12.996C3.034 12.7493 2.84667 12.436 2.764 12.056L1.57 5.725C1.53667 5.73833 1.49933 5.74567 1.458 5.747C1.416 5.749 1.37833 5.75 1.345 5.75C1.031 5.75 0.77 5.64333 0.562 5.43C0.354 5.21667 0.25 4.958 0.25 4.654C0.25 4.33867 0.354333 4.07067 0.563 3.85C0.771 3.63 1.03233 3.52 1.347 3.52C1.66167 3.52 1.92933 3.63 2.15 3.85C2.37 4.07067 2.48 4.33867 2.48 4.654C2.48 4.72333 2.47733 4.78767 2.472 4.847C2.46667 4.90633 2.447 4.965 2.413 5.023L5.173 6.134C5.301 6.18533 5.42933 6.192 5.558 6.154C5.686 6.11533 5.79467 6.03833 5.884 5.923L8.586 2.263C8.44133 2.16833 8.32667 2.043 8.242 1.887C8.15733 1.73167 8.115 1.564 8.115 1.384C8.115 1.06933 8.22533 0.801667 8.446 0.581C8.666 0.360333 8.93367 0.25 9.249 0.25C9.56367 0.25 9.83167 0.36 10.053 0.58C10.2743 0.8 10.385 1.06667 10.385 1.38C10.385 1.56933 10.3427 1.74 10.258 1.892C10.1733 2.04533 10.0587 2.169 9.914 2.263L12.616 5.923C12.7053 6.03833 12.814 6.115 12.942 6.153C13.0707 6.19233 13.199 6.18633 13.327 6.135L16.087 5.023C16.069 4.96967 16.0533 4.91133 16.04 4.848C16.0267 4.784 16.02 4.71933 16.02 4.654C16.02 4.33867 16.124 4.07067 16.332 3.85C16.54 3.63 16.8013 3.52 17.116 3.52C17.4307 3.52 17.6983 3.63 17.919 3.85C18.1397 4.07067 18.25 4.33867 18.25 4.654C18.25 4.95667 18.1393 5.215 17.918 5.429C17.6967 5.643 17.428 5.75 17.112 5.75C17.0867 5.75 17.058 5.746 17.026 5.738C16.994 5.73 16.9587 5.72567 16.92 5.725L15.736 12.055C15.6527 12.4363 15.4653 12.75 15.174 12.996C14.8827 13.242 14.54 13.3653 14.146 13.366H4.354ZM4.373 12.366H14.127C14.2683 12.366 14.3967 12.321 14.512 12.231C14.6273 12.141 14.6977 12.0257 14.723 11.885L15.853 6.229L13.703 7.075C13.3603 7.21967 13.0127 7.24467 12.66 7.15C12.3073 7.05533 12.02 6.852 11.798 6.54L9.25 3.054L6.702 6.54C6.48 6.852 6.19267 7.05533 5.84 7.15C5.48733 7.24467 5.13933 7.21967 4.796 7.075L2.646 6.229L3.777 11.885C3.80233 12.0257 3.87267 12.141 3.988 12.231C4.10333 12.321 4.23167 12.366 4.373 12.366Z" fill="#308B43" stroke="#308B43" stroke-width="0.5"/>
</svg>
