<svg width="58" height="58" viewBox="0 0 58 58" fill="none" xmlns="http://www.w3.org/2000/svg">
<rect width="58" height="58" rx="29" fill="white"/>
<path fill-rule="evenodd" clip-rule="evenodd" d="M7 29.0004C7 16.8499 16.8499 7 29.0004 7C41.1508 7 51.0008 16.8499 51.0008 29.0004C51.0008 31.455 50.5988 33.8156 49.8571 36.0201C48.1492 32.7215 44.7049 30.4671 40.7339 30.4671C35.0637 30.4671 30.4671 35.0637 30.4671 40.7339C30.4671 44.7049 32.7215 48.1492 36.0201 49.8571C33.8156 50.5988 31.455 51.0008 29.0004 51.0008C16.8499 51.0008 7 41.1508 7 29.0004ZM29.0003 14.3335C22.9208 14.3335 17.7085 18.0321 15.4844 23.2961C15.293 23.749 15.3414 24.2677 15.6131 24.6775C15.8848 25.0873 16.3438 25.3337 16.8354 25.3337H41.1652C41.6569 25.3337 42.1158 25.0873 42.3876 24.6775C42.6593 24.2677 42.7077 23.749 42.5163 23.2961C40.2922 18.0321 35.0799 14.3335 29.0003 14.3335ZM15.9826 29.7337C15.5512 29.7337 15.1417 29.9237 14.863 30.253C14.5843 30.5823 14.4647 31.0176 14.5362 31.4431C15.4607 36.954 19.7937 41.3374 24.8859 42.9697C25.332 43.1127 25.8196 43.034 26.1981 42.7579C26.5765 42.4818 26.8003 42.0415 26.8003 41.573V38.5339C26.8003 33.6737 22.8603 29.7337 18.0001 29.7337H15.9826Z" fill="#BDBEBF"/>
<path d="M38.8378 36.7636C38.265 36.1908 37.3364 36.1908 36.7636 36.7636C36.1909 37.3363 36.1909 38.265 36.7636 38.8378L38.6599 40.7341L36.7636 42.6304C36.1908 43.2031 36.1908 44.1318 36.7636 44.7046C37.3363 45.2774 38.265 45.2774 38.8378 44.7046L40.7341 42.8083L42.6304 44.7046C43.2031 45.2774 44.1318 45.2774 44.7046 44.7046C45.2774 44.1318 45.2774 43.2031 44.7046 42.6304L42.8083 40.7341L44.7046 38.8378C45.2773 38.265 45.2773 37.3363 44.7046 36.7636C44.1317 36.1908 43.2031 36.1908 42.6304 36.7636L40.7341 38.6599L38.8378 36.7636Z" fill="#F87171"/>
</svg>
