<svg width="39" height="38" viewBox="0 0 39 38" fill="none" xmlns="http://www.w3.org/2000/svg">
<g filter="url(#filter0_d_1235_2360)">
<rect x="4" y="4" width="30" height="30" rx="15" fill="white"/>
<path fill-rule="evenodd" clip-rule="evenodd" d="M10 19C10 14.0294 14.0294 10 19 10C23.9706 10 28 14.0294 28 19C28 20.0041 27.8356 20.9698 27.5322 21.8717C26.8335 20.5222 25.4244 19.6 23.8 19.6C21.4804 19.6 19.6 21.4804 19.6 23.8C19.6 25.4244 20.5222 26.8335 21.8717 27.5322C20.9698 27.8356 20.0041 28 19 28C14.0294 28 10 23.9706 10 19ZM19 13C16.5129 13 14.3807 14.5131 13.4708 16.6665C13.3925 16.8518 13.4123 17.064 13.5235 17.2316C13.6346 17.3992 13.8224 17.5 14.0235 17.5H23.9764C24.1776 17.5 24.3653 17.3992 24.4765 17.2316C24.5877 17.064 24.6074 16.8518 24.5291 16.6665C23.6193 14.5131 21.487 13 19 13ZM13.6746 19.3C13.4982 19.3 13.3306 19.3777 13.2166 19.5124C13.1026 19.6471 13.0537 19.8252 13.0829 19.9993C13.4611 22.2537 15.2337 24.0469 17.3168 24.7146C17.4993 24.7731 17.6988 24.7409 17.8536 24.628C18.0084 24.515 18.1 24.3349 18.1 24.1433V22.9C18.1 20.9118 16.4882 19.3 14.5 19.3H13.6746Z" fill="#55575B"/>
<path d="M23.0243 22.1757C22.79 21.9414 22.4101 21.9414 22.1757 22.1757C21.9414 22.41 21.9414 22.79 22.1757 23.0243L22.9515 23.8L22.1757 24.5757C21.9414 24.81 21.9414 25.19 22.1757 25.4243C22.41 25.6586 22.79 25.6586 23.0243 25.4243L23.8 24.6485L24.5757 25.4243C24.81 25.6586 25.19 25.6586 25.4243 25.4243C25.6586 25.19 25.6586 24.81 25.4243 24.5757L24.6485 23.8L25.4243 23.0243C25.6586 22.79 25.6586 22.41 25.4243 22.1757C25.1899 21.9414 24.81 21.9414 24.5757 22.1757L23.8 22.9515L23.0243 22.1757Z" fill="#55575B"/>
</g>
<defs>
<filter id="filter0_d_1235_2360" x="-0.651163" y="-0.651163" width="39.3023" height="39.3023" filterUnits="userSpaceOnUse" color-interpolation-filters="sRGB">
<feFlood flood-opacity="0" result="BackgroundImageFix"/>
<feColorMatrix in="SourceAlpha" type="matrix" values="0 0 0 0 0 0 0 0 0 0 0 0 0 0 0 0 0 0 127 0" result="hardAlpha"/>
<feOffset/>
<feGaussianBlur stdDeviation="2.32558"/>
<feComposite in2="hardAlpha" operator="out"/>
<feColorMatrix type="matrix" values="0 0 0 0 0 0 0 0 0 0 0 0 0 0 0 0 0 0 0.25 0"/>
<feBlend mode="normal" in2="BackgroundImageFix" result="effect1_dropShadow_1235_2360"/>
<feBlend mode="normal" in="SourceGraphic" in2="effect1_dropShadow_1235_2360" result="shape"/>
</filter>
</defs>
</svg>
