<svg width="82" height="82" viewBox="0 0 82 82" fill="none" xmlns="http://www.w3.org/2000/svg">
<rect width="82" height="82" rx="41" fill="#EAF3EC"/>
<rect x="9" y="9" width="64" height="64" rx="32" fill="#BFDBC5"/>
<rect x="19" y="19" width="44" height="44" rx="22" fill="#59A269"/>
<path d="M40.9183 26.8359C33.1408 26.8359 26.8359 33.1408 26.8359 40.9183C26.8359 48.6958 33.1408 55.0009 40.9183 55.0009C48.6958 55.0009 55.0009 48.6958 55.0009 40.9183C54.9921 33.1444 48.6924 26.8447 40.9183 26.8359ZM40.9183 29.6525C45.5582 29.6368 49.7272 32.484 51.4012 36.8111C48.1071 35.3285 44.5306 34.5778 40.9183 34.6106C37.3062 34.5778 33.7298 35.3285 30.4356 36.8111C32.1096 32.484 36.2787 29.6368 40.9183 29.6525ZM38.5991 51.943C33.6965 50.8961 30.0702 46.7433 29.6938 41.7442C33.8992 41.7442 38.5991 47.3436 38.5991 51.943ZM40.9183 43.0307C39.7518 43.0307 38.8059 42.0851 38.8059 40.9183C38.8059 39.7518 39.7518 38.8059 40.9183 38.8059C42.0851 38.8059 43.0307 39.7518 43.0307 40.9183C43.0307 42.0851 42.0851 43.0307 40.9183 43.0307ZM43.2377 51.943C43.2377 47.3436 47.9377 41.7442 52.1433 41.7442C51.7666 46.7433 48.1404 50.8961 43.2377 51.943Z" fill="white"/>
</svg>
