<svg width="21" height="23" viewBox="0 0 21 23" fill="none" xmlns="http://www.w3.org/2000/svg">
<path d="M10.5009 11.4556C15.5185 11.4556 20.6671 14.7179 21.0006 21.2718C21.0134 21.5244 20.9255 21.7718 20.756 21.9596C20.5866 22.1475 20.3495 22.2603 20.0969 22.2735C17.4494 22.4084 5.18807 22.4912 0.906218 22.2735C0.653375 22.2607 0.415987 22.1479 0.246271 21.9601C0.0765544 21.7722 -0.0115904 21.5246 0.00122506 21.2718C0.33471 14.7192 5.48337 11.4556 10.5009 11.4556ZM10.5009 0C9.235 0 8.02092 0.502886 7.12578 1.39803C6.23064 2.29317 5.72775 3.50724 5.72775 4.77317C5.72775 6.03909 6.23064 7.25316 7.12578 8.14831C8.02092 9.04345 9.235 9.54634 10.5009 9.54634C11.7668 9.54634 12.9809 9.04345 13.8761 8.14831C14.7712 7.25316 15.2741 6.03909 15.2741 4.77317C15.2741 3.50724 14.7712 2.29317 13.8761 1.39803C12.9809 0.502886 11.7668 0 10.5009 0Z" fill="#308B43"/>
</svg>
