<svg width="17" height="17" viewBox="0 0 17 17" fill="none" xmlns="http://www.w3.org/2000/svg">
<path d="M0.56543 2.23112C0.56543 1.31065 1.31162 0.564453 2.2321 0.564453H4.9648C5.32349 0.564453 5.64194 0.793978 5.75537 1.13426L7.00354 4.8788C7.13469 5.27222 6.95658 5.70221 6.58565 5.88768L4.7046 6.8282C5.62314 8.86547 7.26441 10.5067 9.30168 11.4253L10.2422 9.54423C10.4277 9.1733 10.8577 8.9952 11.2511 9.12634L14.9956 10.3745C15.3359 10.4879 15.5654 10.8064 15.5654 11.1651V13.8978C15.5654 14.8183 14.8192 15.5645 13.8988 15.5645H13.0654C6.16187 15.5645 0.56543 9.96801 0.56543 3.06445V2.23112Z" stroke="#707276" stroke-width="1.13" stroke-linecap="round" stroke-linejoin="round"/>
</svg>
