<svg width="17" height="15" viewBox="0 0 17 15" fill="none" xmlns="http://www.w3.org/2000/svg">
<path d="M14.0833 14.0833H2.41667C1.49619 14.0833 0.75 13.3371 0.75 12.4167L0.75 2.41667C0.75 1.49619 1.49619 0.75 2.41667 0.75L10.75 0.75C11.6705 0.75 12.4167 1.49619 12.4167 2.41667V3.25M14.0833 14.0833C13.1629 14.0833 12.4167 13.3371 12.4167 12.4167L12.4167 3.25M14.0833 14.0833C15.0038 14.0833 15.75 13.3371 15.75 12.4167V4.91667C15.75 3.99619 15.0038 3.25 14.0833 3.25L12.4167 3.25M9.08333 0.75L5.75 0.75M4.08333 10.75H9.08333M4.08333 4.08333H9.08333V7.41667H4.08333V4.08333Z" stroke="#308B43" stroke-width="1.5" stroke-linecap="round" stroke-linejoin="round"/>
</svg>
