<svg width="113" height="113" viewBox="0 0 113 113" fill="none" xmlns="http://www.w3.org/2000/svg">
<path d="M108.289 34.4209C105.45 27.7091 101.387 21.6822 96.2126 16.5075C91.0378 11.3328 85.0109 7.26958 78.2991 4.43073C71.3482 1.49073 63.9668 0 56.3601 0C48.7533 0 41.3719 1.49073 34.4209 4.43073C27.7091 7.26958 21.6822 11.3328 16.5075 16.5075C11.3328 21.6823 7.26958 27.7091 4.43073 34.4209C1.49073 41.3719 0 48.7533 0 56.3601C0 63.9669 1.49073 71.3482 4.43073 78.2991C7.26958 85.0109 11.3328 91.0379 16.5075 96.2126C17.662 97.3671 18.8593 98.4659 20.0969 99.5086L21.2703 95.6137C22.2633 91.7555 23.8809 88.1069 26.078 84.7694C28.2374 81.4891 30.8995 78.5945 33.9904 76.1657C37.1135 73.7116 40.5892 71.8009 44.321 70.4865C48.182 69.1267 52.2325 68.4372 56.36 68.4372C60.4875 68.4372 64.5381 69.1267 68.3991 70.4865C72.1309 71.8009 75.6066 73.7116 78.7297 76.1657C81.8205 78.5945 84.4826 81.4891 86.642 84.7694C88.8391 88.1069 90.4567 91.7555 91.4497 95.6137L92.5035 99.6085C93.7835 98.5361 95.0209 97.4042 96.2125 96.2126C101.387 91.0378 105.45 85.0109 108.289 78.2991C111.229 71.3482 112.72 63.9668 112.72 56.3601C112.72 48.7533 111.229 41.3719 108.289 34.4209Z" fill="#BFDBC5"/>
<path d="M91.4505 95.614C90.4575 91.7558 88.8399 88.1072 86.6428 84.7697C84.4834 81.4894 81.8213 78.5948 78.7304 76.166C75.6073 73.7119 72.1317 71.8012 68.3999 70.4868C64.5388 69.127 60.4883 68.4375 56.3608 68.4375C52.2333 68.4375 48.1828 69.127 44.3218 70.4868C40.59 71.8012 37.1143 73.7119 33.9912 76.166C30.9003 78.5948 28.2382 81.4894 26.0788 84.7697C23.8816 88.1072 22.2641 91.7558 21.2711 95.614L20.0977 99.5089C20.6718 99.9927 21.255 100.464 21.8465 100.923C25.6938 103.911 29.9022 106.378 34.4217 108.29C41.3727 111.23 48.754 112.72 56.3608 112.72C63.9677 112.72 71.349 111.23 78.2999 108.29C83.1914 106.221 87.7186 103.501 91.8178 100.175C92.048 99.9882 92.2768 99.7995 92.5043 99.6089L91.4505 95.614Z" fill="#F2F2F2"/>
<path d="M74.9051 35.9584C73.8911 33.561 72.4403 31.4088 70.5931 29.5615C68.7458 27.7142 66.5935 26.2635 64.1962 25.2495C61.7121 24.1988 59.0756 23.666 56.36 23.666C53.6444 23.666 51.008 24.1988 48.5238 25.2495C46.1264 26.2635 43.9742 27.7142 42.127 29.5615C40.2797 31.4088 38.8289 33.561 37.8149 35.9584C36.7642 38.4426 36.2314 41.079 36.2314 43.7946C36.2314 46.5102 36.7642 49.1466 37.8149 51.6308C38.8289 54.0282 40.2797 56.1804 42.127 58.0277C43.9743 59.8749 46.1265 61.3257 48.5238 62.3397C51.008 63.3904 53.6444 63.9232 56.36 63.9232C59.0756 63.9232 61.712 63.3905 64.1962 62.3397C66.5935 61.3257 68.7458 59.8749 70.5931 58.0277C72.4403 56.1804 73.8911 54.0281 74.9051 51.6308C75.9558 49.1467 76.4886 46.5102 76.4886 43.7946C76.4886 41.079 75.9559 38.4426 74.9051 35.9584Z" fill="#F2F2F2"/>
</svg>
