<svg width="17" height="14" viewBox="0 0 17 14" fill="none" xmlns="http://www.w3.org/2000/svg">
<path d="M10.75 0.75V2.41667M10.75 5.75V7.41667M10.75 10.75V12.4167M2.41667 0.75C1.49619 0.75 0.75 1.49619 0.75 2.41667V4.91667C1.67047 4.91667 2.41667 5.66286 2.41667 6.58333C2.41667 7.50381 1.67047 8.25 0.75 8.25V10.75C0.75 11.6705 1.49619 12.4167 2.41667 12.4167H14.0833C15.0038 12.4167 15.75 11.6705 15.75 10.75V8.25C14.8295 8.25 14.0833 7.50381 14.0833 6.58333C14.0833 5.66286 14.8295 4.91667 15.75 4.91667V2.41667C15.75 1.49619 15.0038 0.75 14.0833 0.75H2.41667Z" stroke="#308B43" stroke-width="1.5" stroke-linecap="round" stroke-linejoin="round"/>
</svg>
