<svg width="16" height="20" viewBox="0 0 16 20" fill="none" xmlns="http://www.w3.org/2000/svg">
<path d="M4.75 11.75L10.75 5.75M5.25003 6.25H5.26003M10.25 11.25H10.26M14.75 18.75V2.75C14.75 1.64543 13.8546 0.75 12.75 0.75H2.75C1.64543 0.75 0.75 1.64543 0.75 2.75V18.75L4.25 16.75L7.75 18.75L11.25 16.75L14.75 18.75ZM5.75 6.25C5.75 6.52614 5.52614 6.75 5.25 6.75C4.97386 6.75 4.75 6.52614 4.75 6.25C4.75 5.97386 4.97386 5.75 5.25 5.75C5.52614 5.75 5.75 5.97386 5.75 6.25ZM10.75 11.25C10.75 11.5261 10.5261 11.75 10.25 11.75C9.97386 11.75 9.75 11.5261 9.75 11.25C9.75 10.9739 9.97386 10.75 10.25 10.75C10.5261 10.75 10.75 10.9739 10.75 11.25Z" stroke="#9D9EA1" stroke-width="1.5" stroke-linecap="round" stroke-linejoin="round"/>
</svg>
