<svg width="20" height="20" viewBox="0 0 20 20" fill="none" xmlns="http://www.w3.org/2000/svg">
<path d="M8.07463 2.06731C8.50103 0.310897 10.999 0.310897 11.4254 2.06731C11.7008 3.20193 13.0007 3.74038 13.9978 3.13285C15.5413 2.19239 17.3076 3.9587 16.3672 5.50218C15.7596 6.49925 16.2981 7.79918 17.4327 8.07463C19.1891 8.50103 19.1891 10.999 17.4327 11.4254C16.2981 11.7008 15.7596 13.0007 16.3672 13.9978C17.3076 15.5413 15.5413 17.3076 13.9978 16.3672C13.0007 15.7596 11.7008 16.2981 11.4254 17.4327C10.999 19.1891 8.50103 19.1891 8.07463 17.4327C7.79918 16.2981 6.49926 15.7596 5.50219 16.3672C3.9587 17.3076 2.19239 15.5413 3.13285 13.9978C3.74038 13.0007 3.20193 11.7008 2.06731 11.4254C0.310897 10.999 0.310897 8.50103 2.06731 8.07463C3.20193 7.79918 3.74037 6.49926 3.13285 5.50218C2.19239 3.9587 3.9587 2.19239 5.50219 3.13285C6.49926 3.74037 7.79918 3.20193 8.07463 2.06731Z" stroke="#9D9EA1" stroke-width="1.5" stroke-linecap="round" stroke-linejoin="round"/>
<path d="M12.75 9.75C12.75 11.4069 11.4069 12.75 9.75 12.75C8.09315 12.75 6.75 11.4069 6.75 9.75C6.75 8.09315 8.09315 6.75 9.75 6.75C11.4069 6.75 12.75 8.09315 12.75 9.75Z" stroke="#9D9EA1" stroke-width="1.5" stroke-linecap="round" stroke-linejoin="round"/>
</svg>
