<svg width="54" height="48" viewBox="0 0 54 48" fill="none" xmlns="http://www.w3.org/2000/svg">
<g filter="url(#filter0_d_356_13226)">
<rect x="5" y="5" width="38" height="38" rx="5" fill="white"/>
<path d="M29.0338 11.9883H18.9686C14.5966 11.9883 11.9902 14.5947 11.9902 18.9667V29.0198C11.9902 33.4038 14.5966 36.0102 18.9686 36.0102H29.0218C33.3938 36.0102 36.0002 33.4038 36.0002 29.0318V18.9667C36.0122 14.5947 33.4058 11.9883 29.0338 11.9883ZM31.8444 24.6358L26.6917 29.7885C26.5115 29.9687 26.2833 30.0528 26.0551 30.0528C25.8269 30.0528 25.5987 29.9687 25.4185 29.7885C25.0702 29.4402 25.0702 28.8637 25.4185 28.5154L29.0338 24.9001H16.7946C16.3022 24.9001 15.8938 24.4917 15.8938 23.9992C15.8938 23.5068 16.3022 23.0984 16.7946 23.0984H29.0338L25.4185 19.4831C25.0702 19.1348 25.0702 18.5583 25.4185 18.21C25.7668 17.8616 26.3433 17.8616 26.6917 18.21L31.8444 23.3627C32.0125 23.5308 32.1086 23.759 32.1086 23.9992C32.1086 24.2395 32.0125 24.4677 31.8444 24.6358Z" fill="#308B43"/>
</g>
<defs>
<filter id="filter0_d_356_13226" x="-5.8" y="-5.8" width="59.6" height="59.6" filterUnits="userSpaceOnUse" color-interpolation-filters="sRGB">
<feFlood flood-opacity="0" result="BackgroundImageFix"/>
<feColorMatrix in="SourceAlpha" type="matrix" values="0 0 0 0 0 0 0 0 0 0 0 0 0 0 0 0 0 0 127 0" result="hardAlpha"/>
<feOffset/>
<feGaussianBlur stdDeviation="5.4"/>
<feComposite in2="hardAlpha" operator="out"/>
<feColorMatrix type="matrix" values="0 0 0 0 0 0 0 0 0 0 0 0 0 0 0 0 0 0 0.25 0"/>
<feBlend mode="normal" in2="BackgroundImageFix" result="effect1_dropShadow_356_13226"/>
<feBlend mode="normal" in="SourceGraphic" in2="effect1_dropShadow_356_13226" result="shape"/>
</filter>
</defs>
</svg>
