<svg width="30" height="29" viewBox="0 0 30 29" fill="none" xmlns="http://www.w3.org/2000/svg">
<path d="M13.7658 2.02624C14.0651 1.10498 15.3685 1.10498 15.6678 2.02625L18.141 9.63672C18.2748 10.0487 18.6588 10.3276 19.092 10.3277L27.0942 10.328C28.0629 10.328 28.4656 11.5676 27.682 12.137L21.2082 16.8408C20.8577 17.0954 20.7111 17.5468 20.8449 17.9588L23.3175 25.5694C23.6168 26.4907 22.5624 27.2568 21.7787 26.6874L15.3046 21.9841C14.9541 21.7295 14.4795 21.7295 14.129 21.9841L7.65493 26.6874C6.87123 27.2568 5.8168 26.4907 6.11611 25.5694L8.58864 17.9588C8.72249 17.5468 8.57585 17.0954 8.22539 16.8408L1.75164 12.137C0.967976 11.5676 1.37073 10.328 2.33942 10.328L10.3416 10.3277C10.7748 10.3276 11.1588 10.0487 11.2926 9.63672L13.7658 2.02624Z" stroke="#F59E0B" stroke-width="2.67"/>
</svg>
