<svg width="15" height="14" viewBox="0 0 15 14" fill="none" xmlns="http://www.w3.org/2000/svg">
<path d="M6.16066 0.616411C6.50226 -0.204881 7.66571 -0.20488 8.00731 0.616413L9.22995 3.55601C9.37396 3.90224 9.69957 4.13881 10.0734 4.16878L13.2469 4.4232C14.1336 4.49428 14.4931 5.60079 13.8175 6.17946L11.3996 8.25065C11.1148 8.4946 10.9905 8.87738 11.0775 9.24213L11.8162 12.339C12.0226 13.2042 11.0813 13.888 10.3222 13.4244L7.60524 11.7649C7.28522 11.5694 6.88275 11.5694 6.56273 11.7649L3.84574 13.4244C3.08664 13.888 2.14539 13.2042 2.35178 12.339L3.09048 9.24213C3.17749 8.87737 3.05312 8.4946 2.76833 8.25065L0.35043 6.17946C-0.325106 5.60079 0.034421 4.49428 0.921075 4.4232L4.09461 4.16878C4.4684 4.13881 4.79401 3.90224 4.93802 3.55601L6.16066 0.616411Z" fill="#F59E0B"/>
</svg>
