<svg width="25" height="25" viewBox="0 0 25 25" fill="none" xmlns="http://www.w3.org/2000/svg">
<path d="M12.1515 0C5.44041 0 0 5.44041 0 12.1515C0 18.8627 5.44041 24.3033 12.1515 24.3033C18.8627 24.3033 24.3033 18.8627 24.3033 12.1515C24.2957 5.44353 18.8598 0.00756506 12.1515 0ZM12.1515 2.4304C16.1553 2.41682 19.7527 4.8737 21.1972 8.60752C18.3547 7.32813 15.2686 6.68042 12.1515 6.70868C9.03472 6.68042 5.94861 7.32813 3.10614 8.60752C4.55062 4.8737 8.14805 2.41682 12.1515 2.4304ZM10.1503 21.6646C5.91991 20.7613 2.79085 17.1779 2.466 12.8642C6.09479 12.8642 10.1503 17.6959 10.1503 21.6646ZM12.1515 13.9743C11.1449 13.9743 10.3288 13.1584 10.3288 12.1515C10.3288 11.1449 11.1449 10.3288 12.1515 10.3288C13.1584 10.3288 13.9743 11.1449 13.9743 12.1515C13.9743 13.1584 13.1584 13.9743 12.1515 13.9743ZM14.153 21.6646C14.153 17.6959 18.2085 12.8642 21.8375 12.8642C21.5124 17.1779 18.3834 20.7613 14.153 21.6646Z" fill="#9D9EA1"/>
</svg>
