<svg width="98" height="98" viewBox="0 0 98 98" fill="none" xmlns="http://www.w3.org/2000/svg">
<path d="M38.7085 5.33407C43.7264 -1.77802 54.2736 -1.77803 59.2915 5.33407L59.6139 5.79104C62.417 9.76407 67.2567 11.7687 72.0482 10.9415L72.5993 10.8464C81.1765 9.36552 88.6345 16.8235 87.1536 25.4007L87.0585 25.9518C86.2313 30.7433 88.2359 35.583 92.209 38.3861L92.6659 38.7085C99.778 43.7264 99.778 54.2736 92.6659 59.2915L92.209 59.6139C88.2359 62.417 86.2313 67.2567 87.0585 72.0482L87.1536 72.5993C88.6345 81.1765 81.1765 88.6345 72.5993 87.1536L72.0482 87.0585C67.2567 86.2313 62.417 88.2359 59.6139 92.209L59.2915 92.6659C54.2736 99.778 43.7264 99.778 38.7085 92.6659L38.3861 92.209C35.583 88.2359 30.7433 86.2313 25.9518 87.0585L25.4007 87.1536C16.8235 88.6345 9.36552 81.1765 10.8464 72.5993L10.9415 72.0482C11.7687 67.2567 9.76407 62.417 5.79104 59.6139L5.33407 59.2915C-1.77802 54.2736 -1.77802 43.7264 5.33407 38.7085L5.79104 38.3861C9.76407 35.583 11.7687 30.7433 10.9415 25.9518L10.8464 25.4007C9.36552 16.8235 16.8235 9.36552 25.4007 10.8464L25.9518 10.9415C30.7433 11.7687 35.583 9.76407 38.3861 5.79105L38.7085 5.33407Z" fill="#BFDBC5"/>
<path d="M40.1787 11.5721C44.4798 5.47598 53.5202 5.47598 57.8213 11.5721L58.0976 11.9638C60.5003 15.3692 64.6486 17.0875 68.7556 16.3784L69.228 16.2969C76.5798 15.0276 82.9724 21.4201 81.7031 28.772L81.6216 29.2444C80.9125 33.3514 82.6308 37.4997 86.0362 39.9024L86.4279 40.1787C92.524 44.4798 92.524 53.5202 86.4279 57.8213L86.0362 58.0976C82.6308 60.5003 80.9125 64.6486 81.6216 68.7556L81.7031 69.228C82.9724 76.5798 76.5798 82.9724 69.228 81.7031L68.7556 81.6216C64.6486 80.9125 60.5003 82.6308 58.0976 86.0362L57.8213 86.4279C53.5202 92.524 44.4798 92.524 40.1787 86.4279L39.9024 86.0362C37.4997 82.6308 33.3514 80.9125 29.2444 81.6216L28.772 81.7031C21.4201 82.9724 15.0276 76.5798 16.2969 69.228L16.3784 68.7556C17.0875 64.6486 15.3692 60.5003 11.9638 58.0976L11.5721 57.8213C5.47598 53.5202 5.47598 44.4798 11.5721 40.1787L11.9638 39.9024C15.3692 37.4997 17.0875 33.3514 16.3784 29.2444L16.2969 28.772C15.0276 21.4201 21.4201 15.0276 28.772 16.2969L29.2444 16.3784C33.3514 17.0875 37.4997 15.3692 39.9024 11.9638L40.1787 11.5721Z" fill="#308B43"/>
<path d="M62.0654 37.0664C62.9029 36.2291 64.2602 36.229 65.0977 37.0664C65.935 37.9038 65.9349 39.2612 65.0977 40.0986L44.2646 60.9326L44.2637 60.9316C43.8621 61.3353 43.3166 61.5605 42.749 61.5605H42.7402C42.1696 61.5577 41.6234 61.3293 41.2207 60.9209H41.2197L32.8867 52.458V52.459C32.0542 51.615 32.0668 50.2568 32.9092 49.4258L32.9102 49.4248C33.7525 48.597 35.1121 48.6042 35.9424 49.4482L42.7578 56.3721L62.0654 37.0664Z" fill="white" stroke="white" stroke-width="1.16279"/>
</svg>
