<svg width="48" height="48" viewBox="0 0 48 48" fill="none" xmlns="http://www.w3.org/2000/svg">
<rect width="48" height="48" rx="24" fill="#F5F5F5"/>
<path d="M19.7 16.25C19.2419 16.2499 18.7948 16.3897 18.4183 16.6506C18.0417 16.9115 17.7538 17.2811 17.593 17.71L16.64 20.25H14.75C14.5511 20.25 14.3603 20.329 14.2197 20.4697C14.079 20.6103 14 20.8011 14 21C14 21.1989 14.079 21.3897 14.2197 21.5303C14.3603 21.671 14.5511 21.75 14.75 21.75H16.08L16.036 21.866C15.5885 22.0157 15.1995 22.3023 14.9239 22.6853C14.6482 23.0682 14.4999 23.5282 14.5 24V31C14.5 31.3978 14.658 31.7794 14.9393 32.0607C15.2206 32.342 15.6022 32.5 16 32.5C16.3978 32.5 16.7794 32.342 17.0607 32.0607C17.342 31.7794 17.5 31.3978 17.5 31V30H30.5V31C30.5 31.3978 30.658 31.7794 30.9393 32.0607C31.2206 32.342 31.6022 32.5 32 32.5C32.3978 32.5 32.7794 32.342 33.0607 32.0607C33.342 31.7794 33.5 31.3978 33.5 31V24C33.5 23.007 32.857 22.165 31.965 21.866L31.922 21.75H33.25C33.4489 21.75 33.6397 21.671 33.7803 21.5303C33.921 21.3897 34 21.1989 34 21C34 20.8011 33.921 20.6103 33.7803 20.4697C33.6397 20.329 33.4489 20.25 33.25 20.25H31.36L30.409 17.71C30.2482 17.2811 29.9603 16.9115 29.5837 16.6506C29.2072 16.3897 28.7601 16.2499 28.302 16.25H19.7ZM32 24V28.5H28.75V27C28.75 26.4033 28.5129 25.831 28.091 25.409C27.669 24.9871 27.0967 24.75 26.5 24.75H21.5C20.9033 24.75 20.331 24.9871 19.909 25.409C19.4871 25.831 19.25 26.4033 19.25 27V28.5H16V24C16 23.8011 16.079 23.6103 16.2197 23.4697C16.3603 23.329 16.5511 23.25 16.75 23.25H31.25C31.4489 23.25 31.6397 23.329 31.7803 23.4697C31.921 23.6103 32 23.8011 32 24ZM30.32 21.75H17.68L18.996 18.237C19.0497 18.0937 19.1459 17.9702 19.2717 17.8832C19.3975 17.7961 19.547 17.7497 19.7 17.75H28.302C28.4547 17.7501 28.6037 17.7967 28.7291 17.8838C28.8546 17.9708 28.9505 18.094 29.004 18.237L30.32 21.75ZM27.25 28.5H20.75V27C20.75 26.8011 20.829 26.6103 20.9697 26.4697C21.1103 26.329 21.3011 26.25 21.5 26.25H26.5C26.6989 26.25 26.8897 26.329 27.0303 26.4697C27.171 26.6103 27.25 26.8011 27.25 27V28.5Z" fill="#2A2D32"/>
</svg>
