<svg width="48" height="48" viewBox="0 0 48 48" fill="none" xmlns="http://www.w3.org/2000/svg">
<rect width="48" height="48" rx="24" fill="#FEFBE6"/>
<path d="M24.0003 33V24M24.0003 19H19.9503C17.1803 19 17.0103 15 19.9503 15C23.1003 15 24.0003 19 24.0003 19ZM24.0003 19H28.0503C30.9463 19 30.9463 15 28.0503 15C24.9003 15 24.0003 19 24.0003 19Z" stroke="#F59E0B" stroke-width="1.5" stroke-linecap="round" stroke-linejoin="round"/>
<path d="M32 24V31C32 31.5304 31.7893 32.0391 31.4142 32.4142C31.0391 32.7893 30.5304 33 30 33H18C17.4696 33 16.9609 32.7893 16.5858 32.4142C16.2107 32.0391 16 31.5304 16 31V24M33 24V21C33 20.4696 32.7893 19.9609 32.4142 19.5858C32.0391 19.2107 31.5304 19 31 19H17C16.4696 19 15.9609 19.2107 15.5858 19.5858C15.2107 19.9609 15 20.4696 15 21V24H33Z" stroke="#F59E0B" stroke-width="1.5" stroke-linecap="round" stroke-linejoin="round"/>
</svg>
