<svg width="14" height="17" viewBox="0 0 14 17" fill="none" xmlns="http://www.w3.org/2000/svg">
<path d="M4.08333 2.41667H2.41667C1.49619 2.41667 0.75 3.16286 0.75 4.08333V14.0833C0.75 15.0038 1.49619 15.75 2.41667 15.75H10.75C11.6705 15.75 12.4167 15.0038 12.4167 14.0833V4.08333C12.4167 3.16286 11.6705 2.41667 10.75 2.41667H9.08333M4.08333 2.41667C4.08333 3.33714 4.82953 4.08333 5.75 4.08333H7.41667C8.33714 4.08333 9.08333 3.33714 9.08333 2.41667M4.08333 2.41667C4.08333 1.49619 4.82953 0.75 5.75 0.75H7.41667C8.33714 0.75 9.08333 1.49619 9.08333 2.41667M6.58333 8.25H9.08333M6.58333 11.5833H9.08333M4.08333 8.25H4.09167M4.08333 11.5833H4.09167" stroke="#308B43" stroke-width="1.5" stroke-linecap="round"/>
</svg>
