<svg width="35" height="30" viewBox="0 0 35 30" fill="none" xmlns="http://www.w3.org/2000/svg">
<path d="M18.1618 7.35089C17.9668 7.29274 17.8557 7.08775 17.9139 6.89276C18.5912 4.61657 20.7008 2.94531 23.2109 2.94531C23.4143 2.94531 23.5793 3.1103 23.5793 3.31372C23.5793 3.51713 23.4143 3.68212 23.2109 3.68212C21.1071 3.68212 19.2193 5.08863 18.6199 7.10271C18.5623 7.29743 18.3576 7.40927 18.1618 7.35085L18.1618 7.35089Z" fill="#308B43"/>
<path d="M28.3668 21.3663H26.1564C25.953 21.3663 25.788 21.2013 25.788 20.9978C25.788 20.7944 25.953 20.6294 26.1564 20.6294H28.3668C31.4136 20.6294 33.8927 18.1503 33.8927 15.1034C33.8927 12.0565 31.4136 9.57743 28.3668 9.57743H28.3136C28.2068 9.57743 28.1052 9.53112 28.0352 9.45034C27.9652 9.36955 27.9336 9.26245 27.9489 9.15666C27.9818 8.92721 27.9984 8.69669 27.9984 8.47224C27.9984 5.8316 25.8498 3.683 23.2092 3.683C22.1819 3.683 21.2022 4.00404 20.3759 4.61163C20.1944 4.74504 19.9365 4.68584 19.8315 4.48611C17.4914 0.0300565 11.3793 -0.568346 8.21052 3.30803C6.87563 4.94109 6.35113 7.06544 6.77142 9.1359C6.81773 9.36457 6.64274 9.57772 6.41039 9.57772H6.26277C3.21589 9.57772 0.736828 12.0568 0.736828 15.1037C0.736828 18.1506 3.21589 20.6297 6.26277 20.6297H8.47311C8.67652 20.6297 8.84151 20.7947 8.84151 20.9981C8.84151 21.2015 8.67653 21.3665 8.47311 21.3665H6.26277C2.80955 21.3665 0 18.557 0 15.1037C0 11.7473 2.65401 8.99903 5.97357 8.84745C5.66175 6.69939 6.25803 4.53267 7.64002 2.84174C11.0327 -1.30881 17.5345 -0.843585 20.2829 3.78458C21.1597 3.23487 22.163 2.9465 23.2091 2.9465C26.4083 2.9465 28.9434 5.66952 28.7216 8.85089C32.0106 9.03535 34.6294 11.7691 34.6294 15.1034C34.6294 18.557 31.8198 21.3663 28.3666 21.3663L28.3668 21.3663Z" fill="#308B43"/>
<path d="M17.2667 30.0003C12.1883 30.0003 8.05664 25.8687 8.05664 20.7902C8.05664 15.7118 12.1882 11.5801 17.2667 11.5801C22.3451 11.5801 26.4767 15.7117 26.4767 20.7902C26.4767 25.8686 22.3451 30.0003 17.2667 30.0003ZM17.2667 12.317C12.5946 12.317 8.7936 16.1182 8.7936 20.7902C8.7936 25.4623 12.5947 29.2634 17.2667 29.2634C21.9386 29.2634 25.7397 25.4622 25.7397 20.7902C25.7397 16.1181 21.9386 12.317 17.2667 12.317Z" fill="#308B43"/>
<path d="M17.4336 17.1299C17.6303 17.1299 17.7899 17.2897 17.79 17.4863V24.499C17.79 24.696 17.6303 24.8555 17.4336 24.8555C17.2369 24.8554 17.0771 24.6957 17.0771 24.499V17.4863C17.0772 17.2897 17.237 17.13 17.4336 17.1299Z" fill="#308B43" stroke="#308B43" stroke-width="0.173148"/>
<path d="M17.1836 17.2344C17.3227 17.0954 17.5485 17.0953 17.6875 17.2344L19.8447 19.3926C19.9838 19.5318 19.9839 19.7573 19.8447 19.8965C19.7751 19.9662 19.6835 20.001 19.5928 20.001C19.5019 20.001 19.4103 19.9659 19.3408 19.8965L17.4346 17.9902L15.5293 19.8965C15.3902 20.0354 15.1644 20.0355 15.0254 19.8965C14.8863 19.7574 14.8865 19.5318 15.0254 19.3926L17.1836 17.2344Z" fill="#308B43" stroke="#308B43" stroke-width="0.173148"/>
</svg>
