<svg width="18" height="14" viewBox="0 0 18 14" fill="none" xmlns="http://www.w3.org/2000/svg">
<path d="M1.96097 10.623H4.6167V11.9509C4.6167 12.3176 4.31945 12.6148 3.95277 12.6148H2.62487C2.25819 12.6148 1.96094 12.3176 1.96094 11.9509L1.96097 10.623Z" stroke="#308B43" stroke-width="1.2" stroke-miterlimit="10" stroke-linecap="round" stroke-linejoin="round"/>
<path d="M15.2378 10.623H12.582V11.9509C12.582 12.3176 12.8793 12.6148 13.246 12.6148H14.5738C14.9405 12.6148 15.2378 12.3176 15.2378 11.9509V10.623Z" stroke="#308B43" stroke-width="1.2" stroke-miterlimit="10" stroke-linecap="round" stroke-linejoin="round"/>
<path d="M14.9405 5.24613C15.8572 5.24613 16.6003 5.98925 16.6003 6.90596V10.624H0.599609V6.90592C0.599609 5.98921 1.34273 5.24609 2.25944 5.24609" stroke="#308B43" stroke-width="1.2" stroke-miterlimit="10" stroke-linecap="round" stroke-linejoin="round"/>
<path d="M6.6082 10.623H10.5918V8.2329H6.6082V10.623Z" stroke="#308B43" stroke-width="1.2" stroke-miterlimit="10" stroke-linecap="round" stroke-linejoin="round"/>
<path d="M12.9152 5.2457C12.9152 4.14567 12.0235 3.25391 10.9234 3.25391C9.8234 3.25391 8.93164 4.14567 8.93164 5.2457" stroke="#308B43" stroke-width="1.2" stroke-miterlimit="10" stroke-linejoin="round"/>
<path d="M0.599609 3.58594H1.29675L2.29265 5.24577" stroke="#308B43" stroke-width="1.2" stroke-miterlimit="10" stroke-linecap="round" stroke-linejoin="round"/>
<path d="M16.5993 3.58594H15.9021L14.9062 5.24577" stroke="#308B43" stroke-width="1.2" stroke-miterlimit="10" stroke-linecap="round" stroke-linejoin="round"/>
<path d="M14.5329 8.22366C14.6922 7.69723 14.3947 7.14127 13.8683 6.98187C13.3419 6.82248 12.7859 7.12001 12.6265 7.64644C12.4671 8.17286 12.7646 8.72883 13.2911 8.88822C13.8175 9.04762 14.3735 8.75008 14.5329 8.22366Z" stroke="#308B43" stroke-width="1.2" stroke-miterlimit="10" stroke-linecap="round" stroke-linejoin="round"/>
<path d="M4.53971 8.31676C4.7502 7.8086 4.50889 7.22601 4.00073 7.01552C3.49257 6.80503 2.90998 7.04634 2.69949 7.5545C2.489 8.06266 2.73031 8.64525 3.23847 8.85574C3.74663 9.06623 4.32922 8.82492 4.53971 8.31676Z" stroke="#308B43" stroke-width="1.2" stroke-miterlimit="10" stroke-linecap="round" stroke-linejoin="round"/>
<path d="M4.87281 0.599609H12.3277C13.0688 0.599609 13.7201 1.0909 13.9237 1.80345L14.9076 5.24714H2.29297L3.27688 1.80345C3.48045 1.09086 4.13175 0.599609 4.87281 0.599609Z" stroke="#308B43" stroke-width="1.2" stroke-miterlimit="10" stroke-linecap="round" stroke-linejoin="round"/>
</svg>
