<svg width="20" height="17" viewBox="0 0 20 17" fill="none" xmlns="http://www.w3.org/2000/svg">
<path d="M15.209 5.23926H17.5576C17.6045 5.23877 17.6467 5.23808 17.6836 5.24023V5.24121C17.933 5.25626 18.1687 5.36194 18.3457 5.53711C18.5008 5.69062 18.6029 5.88871 18.6377 6.10254L18.6484 6.19531C18.6504 6.22697 18.6504 6.26616 18.6504 6.32422V9.91113C18.6504 9.96913 18.6504 10.0084 18.6484 10.04C18.633 10.2576 18.5486 10.4642 18.4092 10.6299L18.3457 10.6992C18.1907 10.8525 17.9913 10.9518 17.7773 10.9844L17.6846 10.9941C17.6468 10.9963 17.6043 10.9976 17.5576 10.9971H15.209C13.5991 10.997 12.2492 9.73193 12.249 8.11816C12.249 6.50416 13.5981 5.23935 15.209 5.23926ZM15.0039 6.58984C14.1573 6.58997 13.5098 7.29604 13.5098 8.11816C13.5099 8.94016 14.1574 9.64538 15.0039 9.64551C15.85 9.64551 16.4969 8.93983 16.4971 8.11816C16.4971 7.29638 15.8501 6.58984 15.0039 6.58984Z" stroke="#308B43" stroke-width="1.2"/>
<path d="M8.06543 0.599609H10.0254C11.7462 0.599609 13.05 0.601027 14.0576 0.736328C15.0148 0.865367 15.7189 1.11672 16.2686 1.6123L16.377 1.71484C16.6455 1.98414 16.8465 2.29154 17 2.64746H15.209C12.2717 2.6477 9.6582 4.96913 9.6582 8.11816C9.65843 11.267 12.2718 13.5886 15.209 13.5889H17C16.8464 13.945 16.6451 14.2519 16.377 14.5195L16.376 14.5205C15.8115 15.0856 15.079 15.3613 14.0576 15.499C13.049 15.6343 11.7461 15.6357 10.0254 15.6357H8.06543C6.55951 15.6357 5.37295 15.6349 4.4248 15.5439L4.0332 15.499C3.01225 15.3614 2.27965 15.0845 1.71484 14.5205H1.71387C1.15036 13.9558 0.873916 13.2227 0.736328 12.2021C0.601021 11.1936 0.599609 9.89065 0.599609 8.16992V8.06543C0.59961 6.55991 0.600534 5.3735 0.691406 4.4248L0.736328 4.03223C0.865381 3.07502 1.11666 2.37093 1.6123 1.82129L1.71484 1.71387C2.27964 1.14999 3.0123 0.872986 4.0332 0.735352L4.03223 0.734375C5.04114 0.599853 6.34462 0.59961 8.06543 0.599609ZM3.47949 3.11133C3.13583 3.11133 2.80551 3.24723 2.5625 3.49023C2.31949 3.73325 2.18359 4.06356 2.18359 4.40723C2.18371 4.75072 2.31962 5.08034 2.5625 5.32324C2.80551 5.56625 3.13582 5.70215 3.47949 5.70215H7.19043C7.53394 5.70204 7.86353 5.56615 8.10645 5.32324C8.34935 5.08034 8.48523 4.75074 8.48535 4.40723C8.48535 4.06356 8.34946 3.73325 8.10645 3.49023C7.86354 3.24736 7.53392 3.11144 7.19043 3.11133H3.47949Z" stroke="#308B43" stroke-width="1.2"/>
</svg>
