<svg width="32" height="32" viewBox="0 0 32 32" fill="none" xmlns="http://www.w3.org/2000/svg">
<rect width="32" height="32" rx="8" fill="#EAF3EC"/>
<path fill-rule="evenodd" clip-rule="evenodd" d="M24.7246 12.2542C24.668 12.2508 24.6076 12.2495 24.5436 12.2502H22.0186C19.9506 12.2502 18.1816 13.8782 18.1816 16.0002C18.1816 18.1222 19.9516 19.7502 22.0186 19.7502H24.5436C24.6076 19.7508 24.6683 19.7495 24.7256 19.7462C25.1507 19.7205 25.5519 19.5413 25.8545 19.2417C26.1572 18.9422 26.3406 18.5429 26.3706 18.1182C26.3746 18.0582 26.3746 17.9932 26.3746 17.9332V14.0672C26.3746 14.0072 26.3746 13.9422 26.3706 13.8822C26.3406 13.4574 26.1572 13.0581 25.8545 12.7586C25.5519 12.4591 25.1497 12.2798 24.7246 12.2542ZM21.7976 17.0002C22.3296 17.0002 22.7606 16.5522 22.7606 16.0002C22.7606 15.4482 22.3296 15.0002 21.7976 15.0002C21.2646 15.0002 20.8336 15.4482 20.8336 16.0002C20.8336 16.5522 21.2646 17.0002 21.7976 17.0002Z" fill="#308B43"/>
<path fill-rule="evenodd" clip-rule="evenodd" d="M24.543 21.25C24.5776 21.2486 24.612 21.2554 24.6434 21.2698C24.6749 21.2842 24.7025 21.3058 24.724 21.3329C24.7456 21.36 24.7604 21.3918 24.7674 21.4257C24.7743 21.4596 24.7731 21.4946 24.764 21.528C24.564 22.24 24.245 22.848 23.734 23.358C22.985 24.108 22.036 24.439 20.864 24.597C19.724 24.75 18.269 24.75 16.431 24.75H14.319C12.481 24.75 11.025 24.75 9.886 24.597C8.714 24.439 7.765 24.107 7.016 23.359C6.268 22.61 5.936 21.661 5.778 20.489C5.625 19.349 5.625 17.894 5.625 16.056V15.944C5.625 14.106 5.625 12.65 5.778 11.51C5.936 10.338 6.268 9.389 7.016 8.64C7.765 7.892 8.714 7.56 9.886 7.402C11.026 7.25 12.481 7.25 14.319 7.25H16.431C18.269 7.25 19.725 7.25 20.864 7.403C22.036 7.561 22.985 7.893 23.734 8.641C24.245 9.153 24.564 9.76 24.764 10.472C24.7731 10.5054 24.7743 10.5404 24.7674 10.5743C24.7604 10.6082 24.7456 10.64 24.724 10.6671C24.7025 10.6942 24.6749 10.7158 24.6434 10.7302C24.612 10.7446 24.5776 10.7514 24.543 10.75H22.019C19.182 10.75 16.682 12.99 16.682 16C16.682 19.01 19.182 21.25 22.019 21.25H24.543ZM9.375 11.25C9.17609 11.25 8.98532 11.329 8.84467 11.4697C8.70402 11.6103 8.625 11.8011 8.625 12C8.625 12.1989 8.70402 12.3897 8.84467 12.5303C8.98532 12.671 9.17609 12.75 9.375 12.75H13.375C13.5739 12.75 13.7647 12.671 13.9053 12.5303C14.046 12.3897 14.125 12.1989 14.125 12C14.125 11.8011 14.046 11.6103 13.9053 11.4697C13.7647 11.329 13.5739 11.25 13.375 11.25H9.375Z" fill="#308B43"/>
</svg>
